<svg width="48" height="40" viewBox="0 0 48 40" fill="none" xmlns="http://www.w3.org/2000/svg">
<path d="M23.5897 33C24.5726 33 25.4085 32.708 26.0973 32.124C26.7861 31.54 27.1298 30.832 27.1282 30H20.0513C20.0513 30.8333 20.3957 31.542 21.0845 32.126C21.7733 32.71 22.6084 33.0013 23.5897 33ZM11.7949 28H35.3846V24H33.0256V18.8C33.0256 16.7667 32.406 14.908 31.1668 13.224C29.9275 11.54 28.1882 10.4653 25.9487 10V9C25.9487 8.43333 25.7223 7.958 25.2693 7.574C24.8164 7.19 24.2565 6.99867 23.5897 7C22.9214 7 22.3607 7.192 21.9078 7.576C21.4549 7.96 21.2292 8.43467 21.2308 9V10C18.9897 10.4667 17.2504 11.542 16.0127 13.226C14.775 14.91 14.1554 16.768 14.1538 18.8V24H11.7949V28ZM23.5897 40C20.3265 40 17.2598 39.4747 14.3897 38.424C11.5197 37.3733 9.02308 35.9487 6.9 34.15C4.77692 32.35 3.09655 30.2333 1.85887 27.8C0.621197 25.3667 0.00157265 22.7667 0 20C0 17.2333 0.619624 14.6333 1.85887 12.2C3.09812 9.76667 4.7785 7.65 6.9 5.85C9.02308 4.05 11.5197 2.62533 14.3897 1.576C17.2598 0.526667 20.3265 0.00133333 23.5897 0C26.853 0 29.9197 0.525333 32.7897 1.576C35.6598 2.62667 38.1564 4.05133 40.2795 5.85C42.4026 7.65 44.0837 9.76667 45.323 12.2C46.5622 14.6333 47.1811 17.2333 47.1795 20C47.1795 22.7667 46.5599 25.3667 45.3206 27.8C44.0814 30.2333 42.401 32.35 40.2795 34.15C38.1564 35.95 35.6598 37.3753 32.7897 38.426C29.9197 39.4767 26.853 40.0013 23.5897 40Z" fill="#1A3D7D"/>
</svg>
