<svg width="24" height="26" viewBox="0 0 24 26" fill="none" xmlns="http://www.w3.org/2000/svg">
<path d="M23.9335 8.61889C24.0926 9.05157 23.9583 9.53398 23.6152 9.84232L22.0784 11.2398C21.6955 11.5929 21.5115 12.1102 21.5363 12.6274C21.5413 12.7716 21.5463 12.9158 21.5463 13.065C21.5463 13.2142 21.5413 13.3585 21.5363 13.5027C21.5115 14.0249 21.6905 14.5421 22.0784 14.8902L23.6152 16.2877C23.9583 16.5961 24.0926 17.0785 23.9335 17.5112C23.7146 18.103 23.4511 18.67 23.1477 19.217L22.9139 19.6199C22.5857 20.1669 22.2177 20.6841 21.8148 21.1715C21.5214 21.5296 21.034 21.649 20.5964 21.5097L18.622 20.8831C18.1246 20.7239 17.5875 20.8284 17.1449 21.1119C16.9012 21.266 16.6525 21.4152 16.3939 21.5445C15.9314 21.7833 15.5733 22.201 15.4589 22.7083L15.0163 24.7324C14.9169 25.185 14.5687 25.5431 14.1112 25.6177C13.4249 25.7321 12.7186 25.7917 11.9975 25.7917C11.2764 25.7917 10.5702 25.7321 9.88385 25.6177C9.42631 25.5431 9.07818 25.185 8.97871 24.7324L8.53609 22.7083C8.42667 22.201 8.06362 21.7833 7.6011 21.5445C7.34249 21.4103 7.09382 21.266 6.85013 21.1119C6.41248 20.8284 5.87039 20.7239 5.37306 20.8831L3.40363 21.5147C2.96597 21.6539 2.47859 21.5296 2.18516 21.1765C1.78232 20.6891 1.4143 20.1719 1.08606 19.6248L0.852315 19.222C0.548942 18.6749 0.285357 18.108 0.0665309 17.5161C-0.0926152 17.0835 0.0416643 16.6011 0.384823 16.2927L1.92158 14.8952C2.30452 14.5421 2.48854 14.0249 2.46367 13.5077C2.4587 13.3634 2.45372 13.2192 2.45372 13.07C2.45372 12.9208 2.4587 12.7766 2.46367 12.6324C2.48854 12.1102 2.3095 11.5929 1.92158 11.2448L0.384823 9.84232C0.0416643 9.53398 -0.0926152 9.05157 0.0665309 8.61889C0.285357 8.02706 0.548942 7.4601 0.852315 6.91304L1.08606 6.5102C1.4143 5.96314 1.78232 5.44591 2.18516 4.95853C2.47859 4.60045 2.96597 4.48109 3.40363 4.62034L5.37803 5.24698C5.87536 5.40613 6.41248 5.30169 6.85511 5.01821C7.0988 4.86403 7.34746 4.71483 7.60608 4.58553C8.06859 4.34681 8.42667 3.92905 8.54106 3.42177L8.98368 1.39763C9.08315 0.945061 9.43128 0.586983 9.88883 0.512383C10.5751 0.393023 11.2814 0.333344 12.0025 0.333344C12.7236 0.333344 13.4298 0.393023 14.1161 0.50741C14.5737 0.582009 14.9218 0.940088 15.0213 1.39266L15.4639 3.4168C15.5733 3.92408 15.9314 4.34184 16.3989 4.58055C16.6575 4.71483 16.9062 4.85906 17.1499 5.01323C17.5875 5.29671 18.1296 5.39618 18.6269 5.24201L20.6013 4.61537C21.039 4.47611 21.5264 4.60045 21.8198 4.95355C22.2227 5.44094 22.5907 5.95816 22.9189 6.50523L23.1527 6.90807C23.456 7.45513 23.7196 8.02209 23.9384 8.61391L23.9335 8.61889ZM12.0025 17.0437C13.0577 17.0437 14.0697 16.6245 14.8158 15.8784C15.562 15.1322 15.9811 14.1202 15.9811 13.065C15.9811 12.0098 15.562 10.9978 14.8158 10.2517C14.0697 9.50556 13.0577 9.08638 12.0025 9.08638C10.9473 9.08638 9.9353 9.50556 9.18915 10.2517C8.44301 10.9978 8.02384 12.0098 8.02384 13.065C8.02384 14.1202 8.44301 15.1322 9.18915 15.8784C9.9353 16.6245 10.9473 17.0437 12.0025 17.0437Z" fill="white"/>
</svg>
