<svg width="20" height="15" viewBox="0 0 20 15" fill="none" xmlns="http://www.w3.org/2000/svg">
<path d="M2.22222 0.833344C0.996528 0.833344 0 1.82987 0 3.05557V11.9445C0 13.1701 0.996528 14.1667 2.22222 14.1667H17.7778C19.0035 14.1667 20 13.1701 20 11.9445V3.05557C20 1.82987 19.0035 0.833344 17.7778 0.833344H2.22222ZM9.44444 5.27779H17.2222C17.5278 5.27779 17.7778 5.52779 17.7778 5.83334C17.7778 6.1389 17.5278 6.3889 17.2222 6.3889H9.44444C9.13889 6.3889 8.88889 6.1389 8.88889 5.83334C8.88889 5.52779 9.13889 5.27779 9.44444 5.27779ZM8.88889 9.16668C8.88889 8.86112 9.13889 8.61112 9.44444 8.61112H17.2222C17.5278 8.61112 17.7778 8.86112 17.7778 9.16668C17.7778 9.47223 17.5278 9.72223 17.2222 9.72223H9.44444C9.13889 9.72223 8.88889 9.47223 8.88889 9.16668ZM5.69444 3.8889V4.37154C5.95486 4.4132 6.20139 4.47223 6.42708 4.53473C6.79861 4.63195 7.01736 5.0139 6.92014 5.38543C6.82292 5.75696 6.44097 5.97571 6.06944 5.87848C5.6875 5.77779 5.31945 5.70487 4.98611 5.69793C4.71181 5.69446 4.43056 5.76043 4.23958 5.87154C4.07292 5.96876 4.02431 6.06598 4.02431 6.19445C4.02431 6.25695 4.02778 6.31598 4.20833 6.42709C4.42708 6.55904 4.74653 6.65973 5.19097 6.79168L5.21528 6.79862C5.60417 6.91668 6.10417 7.06598 6.50347 7.31946C6.95139 7.60071 7.34722 8.05904 7.35764 8.7639C7.36806 9.48959 6.99306 10.0174 6.49653 10.3264C6.24653 10.4826 5.96875 10.5799 5.69097 10.6389V11.1111C5.69097 11.4931 5.37847 11.8056 4.99653 11.8056C4.61458 11.8056 4.30208 11.4931 4.30208 11.1111V10.6042C3.94444 10.5278 3.60764 10.4132 3.32292 10.3125C3.25 10.2882 3.18056 10.2639 3.11111 10.2396C2.74653 10.1181 2.55208 9.72571 2.67361 9.36112C2.79514 8.99654 3.1875 8.80209 3.55208 8.92362C3.63889 8.9514 3.72222 8.98265 3.80208 9.00696C4.27431 9.16668 4.63542 9.28821 5.02083 9.30209C5.31945 9.31251 5.59375 9.24654 5.76389 9.1389C5.90625 9.05209 5.97222 8.94793 5.96875 8.77432C5.96875 8.67362 5.94097 8.60071 5.76389 8.48959C5.54514 8.35071 5.22917 8.25001 4.79167 8.11807L4.73264 8.1007C4.35417 7.98612 3.87847 7.84376 3.49653 7.61459C3.05556 7.34723 2.64236 6.90279 2.63889 6.2014C2.63542 5.46876 3.04861 4.96182 3.53472 4.67709C3.77431 4.53473 4.03819 4.44098 4.30556 4.38195V3.8889C4.30556 3.50695 4.61806 3.19445 5 3.19445C5.38194 3.19445 5.69444 3.50695 5.69444 3.8889Z" fill="white"/>
</svg>
