<svg width="23" height="31" viewBox="0 0 23 31" fill="none" xmlns="http://www.w3.org/2000/svg">
<path d="M3.75 0.333344C1.68164 0.333344 0 2.01498 0 4.08334V26.5833C0 28.6517 1.68164 30.3333 3.75 30.3333H18.75C20.8184 30.3333 22.5 28.6517 22.5 26.5833V9.70834H15C13.9629 9.70834 13.125 8.87045 13.125 7.83334V0.333344H3.75ZM15 0.333344V7.83334H22.5L15 0.333344ZM3.75 5.02084C3.75 4.50522 4.17188 4.08334 4.6875 4.08334H8.4375C8.95312 4.08334 9.375 4.50522 9.375 5.02084C9.375 5.53647 8.95312 5.95834 8.4375 5.95834H4.6875C4.17188 5.95834 3.75 5.53647 3.75 5.02084ZM3.75 8.77084C3.75 8.25522 4.17188 7.83334 4.6875 7.83334H8.4375C8.95312 7.83334 9.375 8.25522 9.375 8.77084C9.375 9.28647 8.95312 9.70834 8.4375 9.70834H4.6875C4.17188 9.70834 3.75 9.28647 3.75 8.77084ZM11.25 12.9896C11.7656 12.9896 12.1875 13.4115 12.1875 13.9271V14.9408C12.6855 15.0111 13.166 15.1224 13.5996 15.2396C14.0977 15.3744 14.3965 15.8841 14.2617 16.388C14.127 16.8919 13.6172 17.1849 13.1133 17.0501C12.4629 16.8744 11.8242 16.7455 11.2324 16.7396C10.7402 16.7337 10.2129 16.8451 9.84961 17.0619C9.51562 17.2611 9.375 17.4896 9.375 17.8119C9.375 18.0287 9.45117 18.1927 9.80273 18.4037C10.207 18.6439 10.7754 18.8197 11.5137 19.0423L11.543 19.0482C12.2051 19.2474 13.0254 19.4935 13.6699 19.9037C14.3789 20.349 14.9824 21.058 15 22.1419C15.0176 23.2728 14.4375 24.0931 13.6582 24.5794C13.207 24.8607 12.6973 25.0247 12.1875 25.1126V26.1146C12.1875 26.6302 11.7656 27.0521 11.25 27.0521C10.7344 27.0521 10.3125 26.6302 10.3125 26.1146V25.0716C9.65625 24.9486 9.04102 24.7376 8.50195 24.5501C8.37891 24.5091 8.25586 24.4681 8.13867 24.4271C7.64648 24.263 7.38281 23.7298 7.54688 23.2435C7.71094 22.7572 8.24414 22.4876 8.73047 22.6517C8.87695 22.6986 9.01172 22.7455 9.14648 22.7923C9.94336 23.0619 10.5879 23.2845 11.2734 23.3021C11.8066 23.3197 12.3223 23.2025 12.6621 22.9915C12.9609 22.804 13.125 22.5638 13.1191 22.1712C13.1133 21.9017 13.0137 21.7142 12.668 21.4915C12.2695 21.2396 11.7012 21.058 10.9688 20.8353L10.875 20.806C10.2305 20.6126 9.45117 20.3783 8.83594 20.0033C8.13281 19.5814 7.51172 18.8958 7.50586 17.8177C7.5 16.681 8.13867 15.8958 8.90039 15.4447C9.33984 15.1869 9.82617 15.0228 10.3125 14.9349V13.9271C10.3125 13.4115 10.7344 12.9896 11.25 12.9896Z" fill="white"/>
</svg>
