<svg width="22" height="25" viewBox="0 0 22 25" fill="none" xmlns="http://www.w3.org/2000/svg">
<path d="M9.81818 3.8788C10.0545 3.8788 10.2498 3.80134 10.404 3.64643C10.5582 3.49153 10.6356 3.29625 10.6364 3.06062C10.6364 2.82425 10.5589 2.62898 10.404 2.4748C10.2491 2.32062 10.0538 2.24316 9.81818 2.24243C9.58182 2.24243 9.38655 2.31989 9.23237 2.4748C9.07818 2.62971 9.00073 2.82498 9 3.06062C9 3.29698 9.07746 3.49225 9.23237 3.64643C9.38728 3.80062 9.58255 3.87807 9.81818 3.8788ZM16.3636 24.3333C14.8545 24.3333 13.568 23.8013 12.504 22.7373C11.44 21.6733 10.9084 20.3872 10.9091 18.8788C10.9091 17.3697 11.4411 16.0832 12.5051 15.0192C13.5691 13.9552 14.8553 13.4235 16.3636 13.4243C17.8727 13.4243 19.1593 13.9563 20.2233 15.0203C21.2873 16.0843 21.8189 17.3704 21.8182 18.8788C21.8182 20.3879 21.2862 21.6744 20.2222 22.7384C19.1582 23.8024 17.872 24.3341 16.3636 24.3333ZM15.8182 22.1515H16.9091V19.4243H19.6364V18.3333H16.9091V15.6061H15.8182V18.3333H13.0909V19.4243H15.8182V22.1515ZM4.36364 9.06062H15.2727V6.8788H4.36364V9.06062ZM9.46364 22.1515H2.18182C1.58182 22.1515 1.068 21.9377 0.640365 21.5101C0.212729 21.0824 -0.000725421 20.569 1.85214e-06 19.9697V4.69698C1.85214e-06 4.09698 0.21382 3.58316 0.641456 3.15553C1.06909 2.72789 1.58255 2.51443 2.18182 2.51516H6.76364C7 1.86062 7.39564 1.33334 7.95055 0.933343C8.50546 0.533343 9.128 0.333344 9.81818 0.333344C10.5091 0.333344 11.132 0.533343 11.6869 0.933343C12.2418 1.33334 12.6371 1.86062 12.8727 2.51516H17.4545C18.0545 2.51516 18.5684 2.72898 18.996 3.15662C19.4236 3.58425 19.6371 4.09771 19.6364 4.69698V12.0061C19.1091 11.7515 18.5771 11.5606 18.0404 11.4333C17.5036 11.3061 16.9447 11.2424 16.3636 11.2424C16.1636 11.2424 15.9771 11.2468 15.804 11.2555C15.6309 11.2643 15.4538 11.2872 15.2727 11.3243V11.2424H4.36364V13.4243H11.0455C10.7182 13.7333 10.4225 14.0697 10.1585 14.4333C9.89455 14.797 9.66291 15.1879 9.46364 15.6061H4.36364V17.7879H8.80909C8.77273 17.9697 8.74982 18.1472 8.74037 18.3203C8.73091 18.4933 8.72655 18.6795 8.72727 18.8788C8.72727 19.4788 8.78182 20.0381 8.89091 20.5566C9 21.0752 9.19091 21.6068 9.46364 22.1515Z" fill="#F0F4FD"/>
</svg>
