<svg width="24" height="23" viewBox="0 0 24 23" fill="none" xmlns="http://www.w3.org/2000/svg">
<path d="M12.0458 10.6248V0.731226C12.0458 0.33265 12.3559 -0.00392532 12.7544 -0.00392532C18.2326 -0.00392532 22.6745 4.43798 22.6745 9.91619C22.6745 10.3148 22.338 10.6248 21.9394 10.6248H12.0458ZM0 12.0419C0 6.67001 3.99019 2.22367 9.16724 1.51509C9.57468 1.45752 9.92011 1.78524 9.92011 2.1971V12.7505L16.8509 19.6813C17.1476 19.978 17.1255 20.4652 16.7845 20.7043C15.0485 21.9443 12.9227 22.6706 10.6287 22.6706C4.76077 22.6706 0 17.9143 0 12.0419ZM23.3123 12.7505C23.7241 12.7505 24.0474 13.0959 23.9943 13.5034C23.6533 15.979 22.462 18.18 20.7215 19.8053C20.4558 20.0533 20.0395 20.0356 19.7826 19.7743L12.7544 12.7505H23.3123Z" fill="white"/>
</svg>
