<svg width="30" height="28" viewBox="0 0 30 28" fill="none" xmlns="http://www.w3.org/2000/svg">
<path d="M9.375 4.625C10.4121 4.625 11.25 3.78711 11.25 2.75C11.25 1.71289 10.4121 0.875 9.375 0.875H5.625C2.51953 0.875 0 3.39453 0 6.5V21.5C0 24.6055 2.51953 27.125 5.625 27.125H9.375C10.4121 27.125 11.25 26.2871 11.25 25.25C11.25 24.2129 10.4121 23.375 9.375 23.375H5.625C4.58789 23.375 3.75 22.5371 3.75 21.5V6.5C3.75 5.46289 4.58789 4.625 5.625 4.625H9.375ZM29.5605 15.0195C29.8418 14.7559 30 14.3867 30 14C30 13.6133 29.8418 13.2441 29.5605 12.9805L21.123 5.01172C20.7129 4.625 20.1152 4.51953 19.5996 4.74219C19.084 4.96484 18.75 5.47461 18.75 6.03125V10.25H11.25C10.2129 10.25 9.375 11.0879 9.375 12.125V15.875C9.375 16.9121 10.2129 17.75 11.25 17.75H18.75V21.9688C18.75 22.5312 19.084 23.0352 19.5996 23.2578C20.1152 23.4805 20.7129 23.375 21.123 22.9883L29.5605 15.0195Z" fill="#1B1B1B"/>
</svg>
