<svg width="24" height="25" viewBox="0 0 24 25" fill="none" xmlns="http://www.w3.org/2000/svg">
<path d="M3 0.333344C2.17031 0.333344 1.5 1.00366 1.5 1.83334V4.83334C1.5 5.66303 2.17031 6.33334 3 6.33334H6.75V7.83334H4.07812C2.59687 7.83334 1.33594 8.91616 1.11094 10.3833L0.0515625 17.4005C0.01875 17.6208 0 17.8458 0 18.0708V21.3333C0 22.988 1.34531 24.3333 3 24.3333H21C22.6547 24.3333 24 22.988 24 21.3333V18.0708C24 17.8458 23.9812 17.6208 23.9484 17.3958L22.8844 10.3833C22.6641 8.91616 21.4031 7.83334 19.9219 7.83334H9.75V6.33334H13.5C14.3297 6.33334 15 5.66303 15 4.83334V1.83334C15 1.00366 14.3297 0.333344 13.5 0.333344H3ZM4.5 2.58334H12C12.4125 2.58334 12.75 2.92084 12.75 3.33334C12.75 3.74584 12.4125 4.08334 12 4.08334H4.5C4.0875 4.08334 3.75 3.74584 3.75 3.33334C3.75 2.92084 4.0875 2.58334 4.5 2.58334ZM3 20.5833C3 20.1708 3.3375 19.8333 3.75 19.8333H20.25C20.6625 19.8333 21 20.1708 21 20.5833C21 20.9958 20.6625 21.3333 20.25 21.3333H3.75C3.3375 21.3333 3 20.9958 3 20.5833ZM5.25 12.7083C4.95163 12.7083 4.66548 12.5898 4.4545 12.3788C4.24353 12.1679 4.125 11.8817 4.125 11.5833C4.125 11.285 4.24353 10.9988 4.4545 10.7878C4.66548 10.5769 4.95163 10.4583 5.25 10.4583C5.54837 10.4583 5.83452 10.5769 6.0455 10.7878C6.25647 10.9988 6.375 11.285 6.375 11.5833C6.375 11.8817 6.25647 12.1679 6.0455 12.3788C5.83452 12.5898 5.54837 12.7083 5.25 12.7083ZM10.875 11.5833C10.875 11.8817 10.7565 12.1679 10.5455 12.3788C10.3345 12.5898 10.0484 12.7083 9.75 12.7083C9.45163 12.7083 9.16548 12.5898 8.9545 12.3788C8.74353 12.1679 8.625 11.8817 8.625 11.5833C8.625 11.285 8.74353 10.9988 8.9545 10.7878C9.16548 10.5769 9.45163 10.4583 9.75 10.4583C10.0484 10.4583 10.3345 10.5769 10.5455 10.7878C10.7565 10.9988 10.875 11.285 10.875 11.5833ZM7.5 16.4583C7.20163 16.4583 6.91548 16.3398 6.7045 16.1288C6.49353 15.9179 6.375 15.6317 6.375 15.3333C6.375 15.035 6.49353 14.7488 6.7045 14.5378C6.91548 14.3269 7.20163 14.2083 7.5 14.2083C7.79837 14.2083 8.08452 14.3269 8.2955 14.5378C8.50647 14.7488 8.625 15.035 8.625 15.3333C8.625 15.6317 8.50647 15.9179 8.2955 16.1288C8.08452 16.3398 7.79837 16.4583 7.5 16.4583ZM15.375 11.5833C15.375 11.8817 15.2565 12.1679 15.0455 12.3788C14.8345 12.5898 14.5484 12.7083 14.25 12.7083C13.9516 12.7083 13.6655 12.5898 13.4545 12.3788C13.2435 12.1679 13.125 11.8817 13.125 11.5833C13.125 11.285 13.2435 10.9988 13.4545 10.7878C13.6655 10.5769 13.9516 10.4583 14.25 10.4583C14.5484 10.4583 14.8345 10.5769 15.0455 10.7878C15.2565 10.9988 15.375 11.285 15.375 11.5833ZM12 16.4583C11.7016 16.4583 11.4155 16.3398 11.2045 16.1288C10.9935 15.9179 10.875 15.6317 10.875 15.3333C10.875 15.035 10.9935 14.7488 11.2045 14.5378C11.4155 14.3269 11.7016 14.2083 12 14.2083C12.2984 14.2083 12.5845 14.3269 12.7955 14.5378C13.0065 14.7488 13.125 15.035 13.125 15.3333C13.125 15.6317 13.0065 15.9179 12.7955 16.1288C12.5845 16.3398 12.2984 16.4583 12 16.4583ZM19.875 11.5833C19.875 11.7311 19.8459 11.8774 19.7894 12.0139C19.7328 12.1504 19.65 12.2744 19.5455 12.3788C19.441 12.4833 19.317 12.5662 19.1805 12.6227C19.044 12.6792 18.8977 12.7083 18.75 12.7083C18.6023 12.7083 18.456 12.6792 18.3195 12.6227C18.183 12.5662 18.059 12.4833 17.9545 12.3788C17.85 12.2744 17.7672 12.1504 17.7106 12.0139C17.6541 11.8774 17.625 11.7311 17.625 11.5833C17.625 11.4356 17.6541 11.2893 17.7106 11.1528C17.7672 11.0163 17.85 10.8923 17.9545 10.7878C18.059 10.6834 18.183 10.6005 18.3195 10.544C18.456 10.4874 18.6023 10.4583 18.75 10.4583C18.8977 10.4583 19.044 10.4874 19.1805 10.544C19.317 10.6005 19.441 10.6834 19.5455 10.7878C19.65 10.8923 19.7328 11.0163 19.7894 11.1528C19.8459 11.2893 19.875 11.4356 19.875 11.5833ZM16.5 16.4583C16.2016 16.4583 15.9155 16.3398 15.7045 16.1288C15.4935 15.9179 15.375 15.6317 15.375 15.3333C15.375 15.035 15.4935 14.7488 15.7045 14.5378C15.9155 14.3269 16.2016 14.2083 16.5 14.2083C16.7984 14.2083 17.0845 14.3269 17.2955 14.5378C17.5065 14.7488 17.625 15.035 17.625 15.3333C17.625 15.6317 17.5065 15.9179 17.2955 16.1288C17.0845 16.3398 16.7984 16.4583 16.5 16.4583Z" fill="white"/>
</svg>
