<svg width="24" height="20" viewBox="0 0 24 20" fill="none" xmlns="http://www.w3.org/2000/svg">
    <path
        d="M3.6 5.5627C3.6 4.28966 4.10571 3.06876 5.00589 2.16858C5.90606 1.26841 7.12696 0.762695 8.4 0.762695C9.67304 0.762695 10.8939 1.26841 11.7941 2.16858C12.6943 3.06876 13.2 4.28966 13.2 5.5627C13.2 6.83573 12.6943 8.05663 11.7941 8.95681C10.8939 9.85698 9.67304 10.3627 8.4 10.3627C7.12696 10.3627 5.90606 9.85698 5.00589 8.95681C4.10571 8.05663 3.6 6.83573 3.6 5.5627ZM0 18.8489C0 15.1552 2.9925 12.1627 6.68625 12.1627H10.1138C13.8075 12.1627 16.8 15.1552 16.8 18.8489C16.8 19.4639 16.3013 19.9627 15.6862 19.9627H1.11375C0.49875 19.9627 0 19.4639 0 18.8489ZM18.9 12.4627V10.0627H16.5C16.0013 10.0627 15.6 9.66145 15.6 9.1627C15.6 8.66395 16.0013 8.2627 16.5 8.2627H18.9V5.8627C18.9 5.36395 19.3013 4.9627 19.8 4.9627C20.2987 4.9627 20.7 5.36395 20.7 5.8627V8.2627H23.1C23.5988 8.2627 24 8.66395 24 9.1627C24 9.66145 23.5988 10.0627 23.1 10.0627H20.7V12.4627C20.7 12.9614 20.2987 13.3627 19.8 13.3627C19.3013 13.3627 18.9 12.9614 18.9 12.4627Z"
        fill="#1A3D7D" />
</svg>