<svg width="24" height="34" viewBox="0 0 24 34" fill="none" xmlns="http://www.w3.org/2000/svg">
<g id="Component 1">
<path id="Vector" d="M2.5083 15.7519V29.2855C2.5083 32.9415 21.4929 32.9415 21.4929 29.2855L21.4926 15.7519C21.4926 15.7519 19.2957 13.4609 15.754 13.4609C12.2134 13.4609 10.2421 15.9734 6.74624 15.9734C3.25092 15.9731 2.50781 15.752 2.50781 15.752L2.5083 15.7519Z" fill="#1A3D7D"/>
<path id="Vector_2" d="M12.0002 34C6.77307 34 0.669178 33.0874 0.669178 30.515V29.532C0.259975 29.2868 0 28.8488 0 28.3726C0 27.8965 0.259982 27.4593 0.669178 27.2135V21.6137C0.259975 21.3684 0 20.9304 0 20.4538C0 19.9777 0.259982 19.5404 0.669178 19.2947V13.6948C0.259975 13.4491 0 13.0116 0 12.5354C0 12.058 0.262161 11.6189 0.673543 11.3742C0.815947 9.5549 4.58986 6.29582 9.05887 4.81922C9.05151 4.76334 9.04741 4.70694 9.04741 4.65027C9.04741 4.17651 9.2943 3.74991 9.69422 3.50226V2.38842C9.38651 2.14002 9.20291 1.75286 9.20291 1.32888C9.20291 0.596105 9.75696 0 10.4384 0H13.5625C14.2434 0 14.7975 0.596105 14.7975 1.32888C14.7975 1.75364 14.6136 2.14084 14.3062 2.38896V3.51683C14.6903 3.76735 14.9273 4.1892 14.9273 4.64999C14.9273 4.70402 14.9238 4.75751 14.9175 4.811C19.3991 6.28442 23.1848 9.54886 23.3273 11.3747C23.7384 11.6199 24 12.0585 24 12.5357C24 13.0113 23.7403 13.4491 23.3316 13.6948V19.2951C23.7403 19.5403 24 19.9781 24 20.4537C24 20.9298 23.7403 21.3671 23.3316 21.6131V27.2134C23.7403 27.4586 24 27.8964 24 28.372C24 28.8476 23.7403 29.2851 23.3316 29.5311V30.5144C23.3316 33.0874 17.2269 33.9999 11.9999 33.9999L12.0002 34ZM10.4385 0.761059C10.1929 0.761059 9.98507 1.02191 9.98507 1.33041C9.98507 1.55895 10.0972 1.76551 10.2712 1.8566L10.4761 1.96438V3.99397L10.2273 4.08851C9.98535 4.1804 9.8293 4.40126 9.8293 4.65177C9.8293 4.73731 9.85004 4.8231 9.89041 4.90679L10.08 5.29978L9.65362 5.43033C5.12511 6.81691 1.45056 10.0832 1.45056 11.4806V11.8797L1.19358 11.9708C0.947248 12.0582 0.781385 12.2859 0.781385 12.5372C0.781385 12.7888 0.947248 13.0171 1.19358 13.1047L1.45056 13.1958V19.7983L1.19358 19.8891C0.947248 19.9759 0.781385 20.2037 0.781385 20.4555C0.781385 20.7076 0.946703 20.9359 1.19358 21.0228L1.45056 21.1136V27.7168L1.19358 27.8076C0.947248 27.8945 0.781385 28.1222 0.781385 28.3741C0.781385 28.6256 0.946703 28.8539 1.19358 28.9408L1.45056 29.0316V30.5159C1.45056 32.0444 6.08411 33.2417 11.9994 33.2417C17.9146 33.2417 22.5483 32.0447 22.5483 30.5159V29.0319L22.8048 28.9408C23.0511 28.8534 23.2167 28.6256 23.2167 28.3741C23.2167 28.1227 23.0514 27.895 22.8048 27.8076L22.5483 27.7165V21.1133L22.8048 21.0222C23.0511 20.9348 23.2167 20.7068 23.2167 20.455C23.2167 20.2037 23.0514 19.9759 22.8048 19.8885L22.5483 19.7974V13.1955L22.8048 13.1044C23.0511 13.0171 23.2167 12.7891 23.2167 12.5372C23.2167 12.2859 23.0514 12.0582 22.8048 11.9705L22.5483 11.8794V11.4809C22.548 10.0783 18.863 6.80713 14.3236 5.42395L13.9005 5.29498L14.0855 4.90359C14.1245 4.82123 14.1441 4.73649 14.1441 4.65228C14.1441 4.40785 13.9938 4.18805 13.7616 4.09272L13.5232 3.99474V1.96332L13.7294 1.85581C13.9024 1.76551 14.0145 1.55921 14.0145 1.32988C14.0145 1.02111 13.8072 0.76053 13.5617 0.76053H10.4381L10.4385 0.761059Z" fill="#1A3D7D"/>
</g>
</svg>
