<svg width="24" height="25" viewBox="0 0 24 25" fill="none" xmlns="http://www.w3.org/2000/svg">
<path id="Vector" d="M19.5 10.5188C19.5 12.7019 18.8016 14.7185 17.625 16.3546L23.5594 22.3807C24.1453 22.9752 24.1453 23.9407 23.5594 24.5352C22.9734 25.1297 22.0219 25.1297 21.4359 24.5352L15.5016 18.5092C13.8891 19.7077 11.9016 20.4116 9.75 20.4116C4.36406 20.4116 0 15.9836 0 10.5188C0 5.05397 4.36406 0.625977 9.75 0.625977C15.1359 0.625977 19.5 5.05397 19.5 10.5188ZM9.75 17.3677C10.6364 17.3677 11.5142 17.1905 12.3331 16.8463C13.1521 16.5021 13.8962 15.9977 14.523 15.3617C15.1498 14.7257 15.647 13.9707 15.9862 13.1398C16.3254 12.3088 16.5 11.4182 16.5 10.5188C16.5 9.61939 16.3254 8.72879 15.9862 7.89785C15.647 7.0669 15.1498 6.31189 14.523 5.67591C13.8962 5.03993 13.1521 4.53545 12.3331 4.19126C11.5142 3.84707 10.6364 3.66992 9.75 3.66992C8.86358 3.66992 7.98583 3.84707 7.16689 4.19126C6.34794 4.53545 5.60382 5.03993 4.97703 5.67591C4.35023 6.31189 3.85303 7.0669 3.51381 7.89785C3.17459 8.72879 3 9.61939 3 10.5188C3 11.4182 3.17459 12.3088 3.51381 13.1398C3.85303 13.9707 4.35023 14.7257 4.97703 15.3617C5.60382 15.9977 6.34794 16.5021 7.16689 16.8463C7.98583 17.1905 8.86358 17.3677 9.75 17.3677Z" fill="black"/>
</svg>
