<svg width="25" height="27" viewBox="0 0 25 27" fill="none" xmlns="http://www.w3.org/2000/svg">
<g id="calendar-day-solid (2) 3" clip-path="url(#clip0_718_3480)">
<path id="Vector" d="M6.99777 0C7.94598 0 8.71205 0.754102 8.71205 1.6875V3.375H15.5692V1.6875C15.5692 0.754102 16.3353 0 17.2835 0C18.2317 0 18.9978 0.754102 18.9978 1.6875V3.375H21.5692C22.9888 3.375 24.1406 4.50879 24.1406 5.90625V8.4375H0.140625V5.90625C0.140625 4.50879 1.29241 3.375 2.71205 3.375H5.28348V1.6875C5.28348 0.754102 6.04955 0 6.99777 0ZM0.140625 10.125H24.1406V24.4688C24.1406 25.8662 22.9888 27 21.5692 27H2.71205C1.29241 27 0.140625 25.8662 0.140625 24.4688V10.125ZM4.42634 13.5C3.95491 13.5 3.5692 13.8797 3.5692 14.3438V19.4062C3.5692 19.8703 3.95491 20.25 4.42634 20.25H9.5692C10.0406 20.25 10.4263 19.8703 10.4263 19.4062V14.3438C10.4263 13.8797 10.0406 13.5 9.5692 13.5H4.42634Z" fill="#1A3D7D"/>
</g>
<defs>
<clipPath id="clip0_718_3480">
<rect width="24" height="27" fill="white" transform="translate(0.140625)"/>
</clipPath>
</defs>
</svg>
