<svg width="25" height="24" viewBox="0 0 25 24" fill="none" xmlns="http://www.w3.org/2000/svg">
<g id="material-symbols:photo-camera-back">
<path id="Vector" d="M6.5 17H18.5L14.75 12L11.75 16L9.5 13L6.5 17ZM4.5 21C3.95 21 3.479 20.804 3.087 20.412C2.695 20.02 2.49934 19.5493 2.5 19V7C2.5 6.45 2.696 5.979 3.088 5.587C3.48 5.195 3.95067 4.99933 4.5 5H7.65L9.5 3H15.5L17.35 5H20.5C21.05 5 21.521 5.196 21.913 5.588C22.305 5.98 22.5007 6.45067 22.5 7V19C22.5 19.55 22.304 20.021 21.912 20.413C21.52 20.805 21.0493 21.0007 20.5 21H4.5Z" fill="black"/>
</g>
</svg>
