<svg width="21" height="22" viewBox="0 0 21 22" fill="none" xmlns="http://www.w3.org/2000/svg">
<path id="Vector" d="M10 8.20022H12V5.15407H15V3.1233H12V0.0771484H10V3.1233H7V5.15407H10V8.20022ZM6 17.3387C4.9 17.3387 4.01 18.2525 4.01 19.3695C4.01 20.4864 4.9 21.4002 6 21.4002C7.1 21.4002 8 20.4864 8 19.3695C8 18.2525 7.1 17.3387 6 17.3387ZM16 17.3387C14.9 17.3387 14.01 18.2525 14.01 19.3695C14.01 20.4864 14.9 21.4002 16 21.4002C17.1 21.4002 18 20.4864 18 19.3695C18 18.2525 17.1 17.3387 16 17.3387ZM6.17 14.0387L6.2 13.9168L7.1 12.2618H14.55C15.3 12.2618 15.96 11.8455 16.3 11.2159L20.16 4.09807L18.42 3.1233H18.41L17.31 5.15407L14.55 10.231H7.53L7.4 9.95684L5.16 5.15407L4.21 3.1233L3.27 1.09253H0V3.1233H2L5.6 10.8301L4.25 13.3178C4.09 13.6021 4 13.9371 4 14.2925C4 15.4095 4.9 16.3233 6 16.3233H18V14.2925H6.42C6.29 14.2925 6.17 14.1808 6.17 14.0387Z" fill="#1A3D7D"/>
</svg>
