         <svg
              xmlns="http://www.w3.org/2000/svg"
              width="82"
              height="52"
              viewBox="0 0 82 52"
              fill="none"
            >
              <path
                d="M27.0638 7.89509C27.0638 5.97109 26.2006 4.12588 24.6641 2.76541C23.1277 1.40493 21.0438 0.640625 18.8709 0.640625C16.698 0.640625 14.6142 1.40493 13.0777 2.76541C11.5412 4.12588 10.6781 5.97109 10.6781 7.89509C10.6781 9.81909 11.5412 11.6643 13.0777 13.0248C14.6142 14.3852 16.698 15.1496 18.8709 15.1496C21.0438 15.1496 23.1277 14.3852 24.6641 13.0248C26.2006 11.6643 27.0638 9.81909 27.0638 7.89509ZM4.12377 26.0312C4.12377 28.0376 5.95436 29.6585 8.2202 29.6585H19.1782C20.4711 25.1925 24.1195 21.5539 28.8816 19.8423C27.6398 19.1622 26.1677 18.7768 24.6059 18.7768H12.3166C7.79776 18.7768 4.12377 22.03 4.12377 26.0312ZM63.2148 29.6585H73.7631C76.0289 29.6585 77.8595 28.0376 77.8595 26.0312C77.8595 22.03 74.1855 18.7768 69.6666 18.7768H57.3773C55.8796 18.7768 54.4714 19.1282 53.2681 19.7516C58.1454 21.4292 61.8962 25.1131 63.2148 29.6585ZM50.1062 22.6761C49.2229 22.4947 48.2884 22.404 47.3411 22.404H35.0518C33.9637 22.404 32.914 22.5287 31.9155 22.7554C27.9727 23.6735 24.7979 26.2806 23.4538 29.6585C23.0057 30.792 22.7497 32.0162 22.7497 33.2857C22.7497 35.292 24.5803 36.9129 26.8462 36.9129H55.5212C57.787 36.9129 59.6176 35.292 59.6176 33.2857C59.6176 32.0162 59.3744 30.792 58.9135 29.6585C57.531 26.1786 54.2026 23.5149 50.0934 22.6761H50.1062ZM72.1245 7.89509C72.1245 5.97109 71.2613 4.12588 69.7249 2.76541C68.1884 1.40493 66.1045 0.640625 63.9316 0.640625C61.7588 0.640625 59.6749 1.40493 58.1384 2.76541C56.6019 4.12588 55.7388 5.97109 55.7388 7.89509C55.7388 9.81909 56.6019 11.6643 58.1384 13.0248C59.6749 14.3852 61.7588 15.1496 63.9316 15.1496C66.1045 15.1496 68.1884 14.3852 69.7249 13.0248C71.2613 11.6643 72.1245 9.81909 72.1245 7.89509ZM41.1965 18.7768C43.9126 18.7768 46.5174 17.8214 48.438 16.1208C50.3586 14.4202 51.4375 12.1137 51.4375 9.7087C51.4375 7.3037 50.3586 4.9972 48.438 3.2966C46.5174 1.59601 43.9126 0.640625 41.1965 0.640625C38.4804 0.640625 35.8755 1.59601 33.9549 3.2966C32.0344 4.9972 30.9554 7.3037 30.9554 9.7087C30.9554 12.1137 32.0344 14.4202 33.9549 16.1208C35.8755 17.8214 38.4804 18.7768 41.1965 18.7768ZM4.12377 44.1674C1.85794 44.1674 0.0273438 45.7883 0.0273438 47.7946C0.0273438 49.801 1.85794 51.4219 4.12377 51.4219H77.8595C80.1253 51.4219 81.9559 49.801 81.9559 47.7946C81.9559 45.7883 80.1253 44.1674 77.8595 44.1674H4.12377Z"
                fill="#1A3D7D"
              />
            </svg>