     <svg
              xmlns="http://www.w3.org/2000/svg"
              width="44"
              height="52"
              viewBox="0 0 44 52"
              fill="none"
            >
              <path
                d="M1.78116 0.84155C2.73332 0.454715 3.85351 0.593579 4.64885 1.19863L9.17442 4.63056L13.7 1.19863C14.7082 0.434877 16.198 0.434877 17.195 1.19863L21.7206 4.63056L26.2461 1.19863C27.2543 0.434877 28.7329 0.434877 29.7411 1.19863L34.2667 4.63056L38.7923 1.19863C39.5876 0.593579 40.7078 0.454715 41.6599 0.84155C42.6121 1.22839 43.2282 2.07149 43.2282 3.00386V49.0274C43.2282 49.9598 42.6121 50.8029 41.6599 51.1897C40.7078 51.5765 39.5876 51.4377 38.7923 50.8326L34.2667 47.4007L29.7411 50.8326C28.7329 51.5964 27.2543 51.5964 26.2461 50.8326L21.7206 47.4007L17.195 50.8326C16.1868 51.5964 14.697 51.5964 13.7 50.8326L9.17442 47.4007L4.64885 50.8326C3.85351 51.4377 2.73332 51.5765 1.78116 51.1897C0.828996 50.8029 0.212891 49.9598 0.212891 49.0274V3.00386C0.212891 2.07149 0.828996 1.22839 1.78116 0.84155ZM10.9667 14.9065C9.98095 14.9065 9.17442 15.6207 9.17442 16.4935C9.17442 17.3664 9.98095 18.0805 10.9667 18.0805H32.4744C33.4602 18.0805 34.2667 17.3664 34.2667 16.4935C34.2667 15.6207 33.4602 14.9065 32.4744 14.9065H10.9667ZM9.17442 35.5377C9.17442 36.4106 9.98095 37.1248 10.9667 37.1248H32.4744C33.4602 37.1248 34.2667 36.4106 34.2667 35.5377C34.2667 34.6649 33.4602 33.9507 32.4744 33.9507H10.9667C9.98095 33.9507 9.17442 34.6649 9.17442 35.5377ZM10.9667 24.4286C9.98095 24.4286 9.17442 25.1428 9.17442 26.0156C9.17442 26.8885 9.98095 27.6026 10.9667 27.6026H32.4744C33.4602 27.6026 34.2667 26.8885 34.2667 26.0156C34.2667 25.1428 33.4602 24.4286 32.4744 24.4286H10.9667Z"
                fill="#1A3D7D"
              />
            </svg>