<svg width="23" height="24" viewBox="0 0 23 24" fill="none" xmlns="http://www.w3.org/2000/svg">
    <path
        d="M19.6102 2.4H18.4102V0H16.0102V2.4H6.41016V0H4.01016V2.4H2.81016C1.47816 2.4 0.410156 3.468 0.410156 4.8V21.6C0.410156 22.2365 0.663013 22.847 1.1131 23.2971C1.56319 23.7471 2.17364 24 2.81016 24H19.6102C20.9302 24 22.0102 22.92 22.0102 21.6V4.8C22.0102 4.16348 21.7573 3.55303 21.3072 3.10294C20.8571 2.65286 20.2467 2.4 19.6102 2.4ZM19.6102 21.6H2.81016V8.4H19.6102V21.6ZM11.2102 19.2V16.8H6.41016V13.2H11.2102V10.8L16.0102 15L11.2102 19.2Z"
        fill="black" />
</svg>