<svg width="8" height="16" viewBox="0 0 8 16" fill="none" xmlns="http://www.w3.org/2000/svg">
<g id="19220959941670661700 3" clip-path="url(#clip0_718_4280)">
<rect width="7.17135" height="16" fill="#1A3D7D"/>
<g id="Layer_x0020_1">
<path id="Path 167" fill-rule="evenodd" clip-rule="evenodd" d="M1.4011 8.54723H5.76996C5.80279 8.54723 5.83531 8.5537 5.86564 8.56626C5.89598 8.57883 5.92354 8.59724 5.94676 8.62046C5.96998 8.64368 5.9884 8.67124 6.00096 8.70158C6.01353 8.73192 6.01999 8.76443 6.01999 8.79727V13.1212C6.01999 13.1541 6.01353 13.1866 6.00096 13.2169C5.9884 13.2472 5.96998 13.2748 5.94676 13.298C5.92354 13.3212 5.89598 13.3397 5.86564 13.3522C5.83531 13.3648 5.80279 13.3713 5.76996 13.3713H1.40119C1.36836 13.3713 1.33584 13.3648 1.30551 13.3522C1.27517 13.3397 1.24761 13.3212 1.22439 13.298C1.20117 13.2748 1.18276 13.2472 1.17019 13.2169C1.15763 13.1866 1.15116 13.1541 1.15116 13.1212V8.79727C1.15116 8.76443 1.15763 8.73192 1.17019 8.70158C1.18276 8.67124 1.20117 8.64368 1.22439 8.62046C1.24761 8.59724 1.27517 8.57883 1.30551 8.56626C1.33584 8.5537 1.36836 8.54723 1.40119 8.54723H1.4011ZM0.584627 6.97363C0.429666 6.97393 0.281138 7.03562 0.171564 7.1452C0.0619902 7.25477 0.000299806 7.4033 0 7.55826V14.4449H7.17125V7.55826C7.17095 7.4033 7.10926 7.25477 6.99968 7.1452C6.89011 7.03562 6.74158 6.97393 6.58662 6.97363H0.584627ZM4.57605 8.01726C4.57605 7.96865 4.59047 7.92112 4.61748 7.8807C4.64449 7.84027 4.68288 7.80877 4.72779 7.79016C4.77271 7.77156 4.82213 7.76669 4.86982 7.77617C4.9175 7.78566 4.9613 7.80907 4.99568 7.84345C5.03006 7.87782 5.05347 7.92162 5.06295 7.96931C5.07244 8.01699 5.06757 8.06641 5.04896 8.11133C5.03036 8.15625 4.99885 8.19464 4.95843 8.22165C4.918 8.24866 4.87048 8.26308 4.82186 8.26308C4.75667 8.26307 4.69415 8.23717 4.64805 8.19108C4.60195 8.14498 4.57605 8.08246 4.57605 8.01726ZM2.10348 8.01726C2.10348 7.96865 2.11789 7.92112 2.1449 7.8807C2.17191 7.84027 2.2103 7.80877 2.25522 7.79016C2.30014 7.77156 2.34956 7.76669 2.39725 7.77617C2.44493 7.78566 2.48873 7.80907 2.52311 7.84345C2.55748 7.87782 2.5809 7.92162 2.59038 7.96931C2.59987 8.01699 2.595 8.06641 2.57639 8.11133C2.55779 8.15625 2.52628 8.19464 2.48586 8.22165C2.44543 8.24866 2.39791 8.26308 2.34929 8.26308C2.2841 8.26307 2.22157 8.23717 2.17548 8.19108C2.12938 8.14498 2.10348 8.08246 2.10348 8.01726Z" fill="#F0F4FD"/>
<path id="Path 168" d="M1.23011 1.01074H5.88312C5.91596 1.01074 5.94847 1.01721 5.97881 1.02977C6.00914 1.04234 6.03671 1.06075 6.05993 1.08397C6.08314 1.10719 6.10156 1.13475 6.11413 1.16509C6.12669 1.19543 6.13316 1.22794 6.13316 1.26077V3.40466C5.51084 3.51003 4.40674 3.6395 3.62618 3.40916C2.76864 3.15613 1.64083 3.33566 0.980074 3.48472V1.26087C0.980073 1.22803 0.986539 1.19552 0.999104 1.16518C1.01167 1.13485 1.03009 1.10728 1.0533 1.08407C1.07652 1.06085 1.10409 1.04243 1.13442 1.02987C1.16476 1.0173 1.19727 1.01083 1.23011 1.01084V1.01074ZM6.13316 3.908V4.36288C6.13178 4.87247 5.92874 5.3608 5.5684 5.72114C5.20807 6.08147 4.71974 6.28451 4.21015 6.28589H2.90308C2.39346 6.28454 1.90509 6.08149 1.54473 5.72113C1.18437 5.36077 0.981329 4.87241 0.97998 4.36279V3.99538C1.56526 3.85419 2.67846 3.64935 3.48546 3.88747C4.31946 4.13357 5.4425 4.01957 6.13306 3.90791L6.13316 3.908Z" fill="#F0F4FD"/>
<path id="Path 169" d="M5.87378 1.51069H1.23801C1.03788 1.51005 0.84613 1.43026 0.704615 1.28874C0.563099 1.14723 0.483311 0.955479 0.482666 0.755347C0.482666 0.340689 0.822792 0 1.23801 0H5.87378C6.28844 0 6.62913 0.340126 6.62913 0.755347C6.62858 0.955508 6.54882 1.14731 6.40728 1.28885C6.26575 1.43039 6.07394 1.51014 5.87378 1.51069Z" fill="#F0F4FD"/>
<path id="Path 170" d="M4.24812 7.47364H2.92362C2.89078 7.47364 2.85827 7.46717 2.82793 7.45461C2.7976 7.44204 2.77003 7.42363 2.74681 7.40041C2.7236 7.37719 2.70518 7.34963 2.69261 7.31929C2.68005 7.28896 2.67358 7.25644 2.67358 7.22361V6.03663C2.67358 6.0038 2.68005 5.97128 2.69261 5.94095C2.70518 5.91061 2.7236 5.88305 2.74681 5.85983C2.77003 5.83661 2.7976 5.8182 2.82793 5.80563C2.85827 5.79307 2.89078 5.7866 2.92362 5.7866H4.21006V5.78726C4.21493 5.78688 4.21981 5.7867 4.22468 5.7866V5.78726C4.23237 5.7866 4.24015 5.78613 4.24803 5.78613C4.28086 5.78613 4.31338 5.7926 4.34371 5.80516C4.37405 5.81773 4.40161 5.83614 4.42483 5.85936C4.44805 5.88258 4.46647 5.91014 4.47903 5.94048C4.4916 5.97082 4.49806 6.00333 4.49806 6.03616V7.22361C4.49806 7.25644 4.4916 7.28896 4.47903 7.31929C4.46647 7.34963 4.44805 7.37719 4.42483 7.40041C4.40161 7.42363 4.37405 7.44204 4.34371 7.45461C4.31338 7.46717 4.28086 7.47364 4.24803 7.47364H4.24812Z" fill="#F0F4FD"/>
<path id="Path 171" d="M2.76917 11.6963H4.40127C4.4341 11.6963 4.46662 11.7028 4.49695 11.7153C4.52729 11.7279 4.55485 11.7463 4.57807 11.7695C4.60129 11.7927 4.61971 11.8203 4.63227 11.8506C4.64484 11.881 4.6513 11.9135 4.6513 11.9463C4.65131 11.9655 4.64914 11.9846 4.64483 12.0032L4.3963 13.4389L4.39649 13.4396C4.38643 13.4976 4.3562 13.5503 4.31112 13.5882C4.26605 13.6261 4.20903 13.6469 4.15011 13.647H3.02023C2.95898 13.6469 2.89986 13.6244 2.85409 13.5837C2.80832 13.543 2.77907 13.4869 2.77189 13.4261L2.52307 11.9888L2.5227 11.9889C2.5114 11.9236 2.52652 11.8564 2.56472 11.8022C2.60293 11.748 2.66109 11.7112 2.72642 11.6999C2.74051 11.6975 2.75478 11.6963 2.76908 11.6963H2.76917Z" fill="#F0F4FD"/>
<path id="Path 172" d="M3.33563 9.59397V9.71388C3.33563 9.78019 3.36197 9.84379 3.40886 9.89068C3.45575 9.93757 3.51935 9.96391 3.58566 9.96391C3.65197 9.96391 3.71557 9.93757 3.76246 9.89068C3.80935 9.84379 3.83569 9.78019 3.83569 9.71388V9.59397H4.05132C4.08415 9.59398 4.11666 9.58751 4.147 9.57494C4.17734 9.56238 4.2049 9.54396 4.22812 9.52075C4.25134 9.49753 4.26975 9.46996 4.28232 9.43963C4.29488 9.40929 4.30135 9.37678 4.30135 9.34394V8.43363C4.30135 8.40079 4.29488 8.36828 4.28232 8.33794C4.26975 8.30761 4.25134 8.28004 4.22812 8.25682C4.2049 8.23361 4.17734 8.21519 4.147 8.20262C4.11666 8.19006 4.08415 8.18359 4.05132 8.18359H3.11991C3.08707 8.18359 3.05456 8.19006 3.02422 8.20262C2.99389 8.21519 2.96632 8.23361 2.9431 8.25682C2.91989 8.28004 2.90147 8.30761 2.8889 8.33794C2.87634 8.36828 2.86987 8.40079 2.86987 8.43363V9.34394C2.86987 9.37678 2.87634 9.40929 2.8889 9.43963C2.90147 9.46996 2.91989 9.49753 2.9431 9.52075C2.96632 9.54396 2.99389 9.56238 3.02422 9.57494C3.05456 9.58751 3.08707 9.59398 3.11991 9.59397H3.33563Z" fill="#F0F4FD"/>
<path id="Path 173" fill-rule="evenodd" clip-rule="evenodd" d="M7.17125 14.9443H1.75795e-10V15.7503C-1.23105e-06 15.7831 0.00646502 15.8157 0.0190299 15.846C0.0315947 15.8763 0.050012 15.9039 0.0732299 15.9271C0.0964478 15.9503 0.124012 15.9687 0.154348 15.9813C0.184683 15.9939 0.217197 16.0003 0.250032 16.0003H6.92121C6.95405 16.0003 6.98656 15.9939 7.0169 15.9813C7.04724 15.9687 7.0748 15.9503 7.09802 15.9271C7.12123 15.9039 7.13965 15.8763 7.15222 15.846C7.16478 15.8157 7.17125 15.7831 7.17125 15.7503V14.9443Z" fill="#F0F4FD"/>
</g>
</g>
<defs>
<clipPath id="clip0_718_4280">
<rect width="7.17135" height="16" fill="white"/>
</clipPath>
</defs>
</svg>
