<svg width="22" height="21" viewBox="0 0 22 21" fill="none" xmlns="http://www.w3.org/2000/svg">
<path id="Vector" d="M2.75 20.7623C2.2 20.7623 1.729 20.5666 1.337 20.1753C0.945002 19.784 0.749335 19.313 0.750002 18.7623V4.7623C0.750002 4.2123 0.946002 3.7413 1.338 3.3493C1.73 2.9573 2.20067 2.76164 2.75 2.7623H11.675L9.675 4.7623H2.75V18.7623H16.75V11.8123L18.75 9.8123V18.7623C18.75 19.3123 18.554 19.7833 18.162 20.1753C17.77 20.5673 17.2993 20.763 16.75 20.7623H2.75ZM13.925 3.3373L15.35 4.7373L8.75 11.3373V12.7623H10.15L16.775 6.1373L18.2 7.5373L11 14.7623H6.75V10.5123L13.925 3.3373ZM18.2 7.5373L13.925 3.3373L16.425 0.837305C16.825 0.437305 17.3043 0.237305 17.863 0.237305C18.4217 0.237305 18.8923 0.437305 19.275 0.837305L20.675 2.2623C21.0583 2.64564 21.25 3.1123 21.25 3.6623C21.25 4.2123 21.0583 4.67897 20.675 5.0623L18.2 7.5373Z" fill="black"/>
</svg>
