            <svg
              xmlns="http://www.w3.org/2000/svg"
              width="79"
              height="50"
              viewBox="0 0 79 50"
              fill="none"
            >
              <g clipPath="url(#clip0_43_4078)">
                <path
                  d="M12.0684 9.375V31.25C12.0684 34.6973 15.5718 37.5 19.8809 37.5H70.6621C74.9712 37.5 78.4746 34.6973 78.4746 31.25V9.375C78.4746 5.92773 74.9712 3.125 70.6621 3.125H19.8809C15.5718 3.125 12.0684 5.92773 12.0684 9.375ZM19.8809 25C24.1899 25 27.6934 27.8027 27.6934 31.25H19.8809V25ZM27.6934 9.375C27.6934 12.8223 24.1899 15.625 19.8809 15.625V9.375H27.6934ZM70.6621 25V31.25H62.8496C62.8496 27.8027 66.353 25 70.6621 25ZM62.8496 9.375H70.6621V15.625C66.353 15.625 62.8496 12.8223 62.8496 9.375ZM35.5059 20.3125C35.5059 18.2405 36.5347 16.2534 38.3661 14.7882C40.1976 13.3231 42.6815 12.5 45.2715 12.5C47.8615 12.5 50.3454 13.3231 52.1768 14.7882C54.0082 16.2534 55.0371 18.2405 55.0371 20.3125C55.0371 22.3845 54.0082 24.3716 52.1768 25.8368C50.3454 27.3019 47.8615 28.125 45.2715 28.125C42.6815 28.125 40.1976 27.3019 38.3661 25.8368C36.5347 24.3716 35.5059 22.3845 35.5059 20.3125ZM6.20898 11.7188C6.20898 10.4199 4.90283 9.375 3.2793 9.375C1.65576 9.375 0.349609 10.4199 0.349609 11.7188V35.1562C0.349609 41.6309 6.90478 46.875 14.998 46.875H63.8262C65.4497 46.875 66.7559 45.8301 66.7559 44.5312C66.7559 43.2324 65.4497 42.1875 63.8262 42.1875H14.998C10.1396 42.1875 6.20898 39.043 6.20898 35.1562V11.7188Z"
                  fill="#1A3D7D"
                />
              </g>
              <defs>
                <clipPath id="clip0_43_4078">
                  <rect
                    width="78.125"
                    height="50"
                    fill="white"
                    transform="translate(0.349609)"
                  />
                </clipPath>
              </defs>
            </svg>