        <svg
                        xmlns="http://www.w3.org/2000/svg"
                        width="22"
                        height="24"
                        viewBox="0 0 22 24"
                        fill="none"
                      >
                        <path
                          d="M19.2 2.4H18V0H15.6V2.4H6V0H3.6V2.4H2.4C1.068 2.4 0 3.468 0 4.8V21.6C0 22.2365 0.252856 22.847 0.702944 23.2971C1.15303 23.7471 1.76348 24 2.4 24H19.2C20.52 24 21.6 22.92 21.6 21.6V4.8C21.6 4.16348 21.3471 3.55303 20.8971 3.10294C20.447 2.65286 19.8365 2.4 19.2 2.4ZM19.2 21.6H2.4V8.4H19.2V21.6ZM10.8 10.8V13.2H15.6V16.8H10.8V19.2L6 15L10.8 10.8Z"
                          fill="black"
                        />
                      </svg>