<svg width="17" height="24" viewBox="0 0 17 24" fill="none" xmlns="http://www.w3.org/2000/svg">
<g id="logos:google-maps" clipPath="url(#clip0_718_3096)">
<path id="Vector" d="M4.61523 17.7788C5.30935 18.6634 5.94109 19.5952 6.50587 20.5674C6.9881 21.4818 7.18912 22.1018 7.54153 23.2035C7.75766 23.8122 7.953 23.9938 8.37297 23.9938C8.8306 23.9938 9.03823 23.6848 9.19865 23.2068C9.53177 22.1664 9.79315 21.3724 10.2055 20.6221C11.0147 19.1736 12.0202 17.8864 13.0082 16.6493C13.2757 16.2992 15.005 14.2595 15.7835 12.65C15.7835 12.65 16.7404 10.8821 16.7404 8.41294C16.7404 6.10332 15.7968 4.50146 15.7968 4.50146L13.0799 5.22905L11.43 9.57462L11.0218 10.1738L10.9402 10.2824L10.8316 10.4183L10.6411 10.6353L10.3688 10.9076L8.89953 12.1046L5.22629 14.2255L4.61523 17.7788Z" fill="#34A853"/>
<path id="Vector_2" d="M0.824219 12.3525C1.72072 14.4002 3.44951 16.2002 4.61916 17.7799L10.8318 10.4208C10.8318 10.4208 9.95651 11.5654 8.36885 11.5654C6.60037 11.5654 5.17169 10.1532 5.17169 8.37251C5.17169 7.15139 5.90633 6.3125 5.90633 6.3125L1.68907 7.44253L0.824219 12.3525Z" fill="#FBBC04"/>
<path id="Vector_3" d="M10.9026 0.378483C12.966 1.04375 14.732 2.44039 15.8002 4.49988L10.8351 10.4167C10.8351 10.4167 11.5698 9.56264 11.5698 8.3491C11.5698 6.52693 10.0354 5.16567 8.37784 5.16567C6.81039 5.16567 5.91016 6.30844 5.91016 6.30844V2.58092L10.9026 0.378418V0.378483Z" fill="#4285F4"/>
<path id="Vector_4" d="M1.96289 2.99281C3.19526 1.51834 5.36376 0 8.35336 0C9.80383 0 10.8966 0.380796 10.8966 0.380796L5.90458 6.31167H2.36769L1.96289 2.99281Z" fill="#1A73E8"/>
<path id="Vector_5" d="M0.824763 12.3525C0.824763 12.3525 0 10.7374 0 8.39752C0 6.18605 0.859684 4.25297 1.96283 2.99268L5.90734 6.31207L0.824763 12.3525Z" fill="#EA4335"/>
</g>
<defs>
<clipPath id="clip0_718_3096">
<rect width="16.7411" height="24" fill="white"/>
</clipPath>
</defs>
</svg>
