<svg width="23" height="24" viewBox="0 0 23 24" fill="none" xmlns="http://www.w3.org/2000/svg">
    <path
        d="M20.1001 2.4H18.9001V0H16.5001V2.4H6.90015V0H4.50015V2.4H3.30015C1.96815 2.4 0.900146 3.468 0.900146 4.8V21.6C0.900146 22.2365 1.153 22.847 1.60309 23.2971C2.05318 23.7471 2.66363 24 3.30015 24H20.1001C21.4201 24 22.5001 22.92 22.5001 21.6V4.8C22.5001 4.16348 22.2473 3.55303 21.7972 3.10294C21.3471 2.65286 20.7367 2.4 20.1001 2.4ZM20.1001 21.6H3.30015V8.4H20.1001V21.6ZM11.7001 10.8V13.2H16.5001V16.8H11.7001V19.2L6.90015 15L11.7001 10.8Z"
        fill="black" />
</svg>