<svg width="20" height="23" viewBox="0 0 20 23" fill="none" xmlns="http://www.w3.org/2000/svg">
<path id="Vector" d="M9 3.93086C9.21667 3.93086 9.39567 3.85877 9.537 3.71458C9.67834 3.5704 9.74934 3.38864 9.75 3.16932C9.75 2.94932 9.679 2.76757 9.537 2.62406C9.395 2.48055 9.216 2.40846 9 2.40778C8.78334 2.40778 8.60434 2.47987 8.463 2.62406C8.32167 2.76824 8.25067 2.95 8.25 3.16932C8.25 3.38932 8.321 3.57107 8.463 3.71458C8.605 3.85809 8.784 3.93018 9 3.93086ZM15 22.9693C13.6167 22.9693 12.4373 22.4742 11.462 21.4838C10.4867 20.4935 9.99934 19.2963 10 17.8924C10 16.4878 10.4877 15.2903 11.463 14.3C12.4383 13.3096 13.6173 12.8148 15 12.8155C16.3833 12.8155 17.5627 13.3106 18.538 14.301C19.5133 15.2913 20.0007 16.4885 20 17.8924C20 19.297 19.5123 20.4945 18.537 21.4848C17.5617 22.4752 16.3827 22.97 15 22.9693ZM14.5 20.9386H15.5V18.4001H18V17.3847H15.5V14.8462H14.5V17.3847H12V18.4001H14.5V20.9386ZM4 8.75394H14V6.72317H4V8.75394ZM8.675 20.9386H2C1.45 20.9386 0.979002 20.7395 0.587002 20.3415C0.195002 19.9435 -0.000664969 19.4656 1.69779e-06 18.9078V4.6924C1.69779e-06 4.13394 0.196002 3.65569 0.588002 3.25766C0.980002 2.85963 1.45067 2.66095 2 2.66163H6.2C6.41667 2.0524 6.77934 1.56163 7.288 1.18932C7.79667 0.817013 8.36734 0.630859 9 0.630859C9.63334 0.630859 10.2043 0.817013 10.713 1.18932C11.2217 1.56163 11.584 2.0524 11.8 2.66163H16C16.55 2.66163 17.021 2.86064 17.413 3.25867C17.805 3.65671 18.0007 4.13461 18 4.6924V11.4955C17.5167 11.2586 17.029 11.0809 16.537 10.9624C16.045 10.8439 15.5327 10.7847 15 10.7847C14.8167 10.7847 14.6457 10.7888 14.487 10.7969C14.3283 10.805 14.166 10.8263 14 10.8609V10.7847H4V12.8155H10.125C9.825 13.1032 9.554 13.4162 9.312 13.7547C9.07 14.0932 8.85767 14.457 8.675 14.8462H4V16.877H8.075C8.04167 17.0462 8.02067 17.2114 8.012 17.3725C8.00333 17.5336 7.99934 17.7069 8 17.8924C8 18.4509 8.05 18.9714 8.15 19.4541C8.25 19.9367 8.425 20.4315 8.675 20.9386Z" fill="#1A3D7D"/>
</svg>
