<svg width="81" height="81" viewBox="0 0 81 81" fill="none" xmlns="http://www.w3.org/2000/svg">
<g id="image-regular 1" clipPath="url(#clip0_718_3316)">
<path id="Vector" d="M70.1406 13.3711C71.5156 13.3711 72.6406 14.4961 72.6406 15.8711V65.8398L71.8594 64.8242L50.6094 37.3242C49.9062 36.4023 48.7969 35.8711 47.6406 35.8711C46.4844 35.8711 45.3906 36.4023 44.6719 37.3242L31.7031 54.1055L26.9375 47.4336C26.2344 46.4492 25.1094 45.8711 23.8906 45.8711C22.6719 45.8711 21.5469 46.4492 20.8438 47.4492L8.34375 64.9492L7.64062 65.918V65.8711V15.8711C7.64062 14.4961 8.76562 13.3711 10.1406 13.3711H70.1406ZM10.1406 5.87109C4.625 5.87109 0.140625 10.3555 0.140625 15.8711V65.8711C0.140625 71.3867 4.625 75.8711 10.1406 75.8711H70.1406C75.6562 75.8711 80.1406 71.3867 80.1406 65.8711V15.8711C80.1406 10.3555 75.6562 5.87109 70.1406 5.87109H10.1406ZM22.6406 35.8711C23.6255 35.8711 24.6008 35.6771 25.5107 35.3002C26.4207 34.9233 27.2475 34.3708 27.9439 33.6744C28.6404 32.978 29.1928 32.1512 29.5697 31.2412C29.9466 30.3313 30.1406 29.356 30.1406 28.3711C30.1406 27.3862 29.9466 26.4109 29.5697 25.501C29.1928 24.591 28.6404 23.7642 27.9439 23.0678C27.2475 22.3714 26.4207 21.8189 25.5107 21.442C24.6008 21.0651 23.6255 20.8711 22.6406 20.8711C21.6557 20.8711 20.6804 21.0651 19.7705 21.442C18.8606 21.8189 18.0338 22.3714 17.3373 23.0678C16.6409 23.7642 16.0884 24.591 15.7115 25.501C15.3346 26.4109 15.1406 27.3862 15.1406 28.3711C15.1406 29.356 15.3346 30.3313 15.7115 31.2412C16.0884 32.1512 16.6409 32.978 17.3373 33.6744C18.0338 34.3708 18.8606 34.9233 19.7705 35.3002C20.6804 35.6771 21.6557 35.8711 22.6406 35.8711Z" fill="#606060"/>
</g>
<defs>
<clipPath id="clip0_718_3316">
<rect width="80" height="80" fill="white" transform="translate(0.140625 0.871094)"/>
</clipPath>
</defs>
</svg>
