<svg width="20" height="20" viewBox="0 0 20 20" fill="none" xmlns="http://www.w3.org/2000/svg">
<g id="mdi:map-marker">
<path id="Vector" d="M9.99935 9.58317C9.44682 9.58317 8.91691 9.36368 8.52621 8.97298C8.13551 8.58228 7.91602 8.05237 7.91602 7.49984C7.91602 6.9473 8.13551 6.4174 8.52621 6.0267C8.91691 5.636 9.44682 5.4165 9.99935 5.4165C10.5519 5.4165 11.0818 5.636 11.4725 6.0267C11.8632 6.4174 12.0827 6.9473 12.0827 7.49984C12.0827 7.77342 12.0288 8.04433 11.9241 8.29709C11.8194 8.54986 11.6659 8.77952 11.4725 8.97298C11.279 9.16643 11.0494 9.31989 10.7966 9.42459C10.5438 9.52928 10.2729 9.58317 9.99935 9.58317ZM9.99935 1.6665C8.45225 1.6665 6.96852 2.28109 5.87456 3.37505C4.7806 4.46901 4.16602 5.95274 4.16602 7.49984C4.16602 11.8748 9.99935 18.3332 9.99935 18.3332C9.99935 18.3332 15.8327 11.8748 15.8327 7.49984C15.8327 5.95274 15.2181 4.46901 14.1241 3.37505C13.0302 2.28109 11.5464 1.6665 9.99935 1.6665Z" fill="#1A3D7D"/>
</g>
</svg>
