<svg width="33" height="20" viewBox="0 0 33 20" fill="none" xmlns="http://www.w3.org/2000/svg">
    <path
        d="M25.7143 17.1429V20H8.57143V17.1429C8.57143 17.1429 8.57143 11.4286 17.1429 11.4286C25.7143 11.4286 25.7143 17.1429 25.7143 17.1429ZM21.4286 4.28572C21.4286 3.43808 21.1772 2.60948 20.7063 1.9047C20.2354 1.19992 19.566 0.650608 18.7829 0.326232C17.9998 0.00185694 17.1381 -0.0830145 16.3068 0.0823507C15.4754 0.247716 14.7118 0.65589 14.1124 1.25526C13.513 1.85463 13.1049 2.61827 12.9395 3.44961C12.7741 4.28096 12.859 5.14268 13.1834 5.92579C13.5077 6.7089 14.0571 7.37824 14.7618 7.84916C15.4666 8.32008 16.2952 8.57143 17.1429 8.57143C18.2795 8.57143 19.3696 8.1199 20.1733 7.31617C20.977 6.51245 21.4286 5.42236 21.4286 4.28572ZM26 11.5143C26.7809 12.2347 27.4105 13.1035 27.852 14.0699C28.2935 15.0363 28.538 16.0809 28.5714 17.1429V20H32.8571V17.1429C32.8571 17.1429 32.8571 12.2143 26 11.5143ZM24.2857 1.63072e-06C23.8541 0.000259935 23.4251 0.0677349 23.0143 0.200001C23.8501 1.39853 24.2982 2.82455 24.2982 4.28572C24.2982 5.74688 23.8501 7.1729 23.0143 8.37143C23.4251 8.5037 23.8541 8.57117 24.2857 8.57143C25.4224 8.57143 26.5124 8.1199 27.3162 7.31617C28.1199 6.51245 28.5714 5.42236 28.5714 4.28572C28.5714 3.14907 28.1199 2.05899 27.3162 1.25526C26.5124 0.451531 25.4224 1.63072e-06 24.2857 1.63072e-06ZM9.05714 5.6L10.7143 7.61429L3.92857 14.4L0 10.1143L1.65714 8.45714L3.92857 10.7143L9.05714 5.6Z"
        fill="#1A3D7D" />
</svg>