<svg width="29" height="20" viewBox="0 0 29 20" fill="none" xmlns="http://www.w3.org/2000/svg">
    <path
        d="M0 4.375H12.3728L13.3245 6.25H0.951752L0 4.375ZM1.269 8.125H13.6418L14.5935 10H2.22075L1.269 8.125ZM21.8903 18.125C22.9436 18.125 23.7938 17.2875 23.7938 16.25C23.7938 15.2125 22.9436 14.375 21.8903 14.375C20.837 14.375 19.9868 15.2125 19.9868 16.25C19.9868 17.2875 20.837 18.125 21.8903 18.125ZM23.7938 6.875H20.6213V10H26.281L23.7938 6.875ZM9.20026 18.125C10.2535 18.125 11.1038 17.2875 11.1038 16.25C11.1038 15.2125 10.2535 14.375 9.20026 14.375C8.14699 14.375 7.29676 15.2125 7.29676 16.25C7.29676 17.2875 8.14699 18.125 9.20026 18.125ZM24.4283 5L28.2353 10V16.25H25.6973C25.6973 18.325 23.9968 20 21.8903 20C19.7837 20 18.0833 18.325 18.0833 16.25H13.0073C13.0073 18.325 11.2941 20 9.20026 20C7.09372 20 5.39326 18.325 5.39326 16.25H2.85525V11.875H5.39326V13.75H6.3577C7.05565 12.9875 8.07085 12.5 9.20026 12.5C10.3297 12.5 11.3449 12.9875 12.0428 13.75H18.0833V2.5H2.85525C2.85525 1.1125 3.98467 0 5.39326 0H20.6213V5H24.4283Z"
        fill="#1A3D7D" />
</svg>