<svg width="24" height="24" viewBox="0 0 24 24" fill="none" xmlns="http://www.w3.org/2000/svg">
    <path
        d="M17.92 24L14.4 20L15.8848 18.4533L17.92 20.5733L22.5152 15.7867L24 17.6667M12.544 24H2.56C1.88105 24 1.2299 23.719 0.749807 23.219C0.269713 22.7189 0 22.0406 0 21.3333V2.66667C0 1.18667 1.1392 0 2.56 0H20.48C21.159 0 21.8101 0.280951 22.2902 0.781048C22.7703 1.28115 23.04 1.95942 23.04 2.66667V13.0667C21.9136 12.3867 20.5952 12 19.2 12L17.92 12.1067V10.6667H5.12V13.3333H14.9632C13.9041 14.0606 13.0351 15.0505 12.4341 16.2141C11.8331 17.3777 11.519 18.6787 11.52 20C11.52 21.4533 11.8912 22.8267 12.544 24ZM11.52 16H5.12V18.6667H11.52M17.92 5.33333H5.12V8H17.92"
        fill="#1A3D7D" />
</svg>