<svg width="24" height="24" viewBox="0 0 24 24" fill="none" xmlns="http://www.w3.org/2000/svg">
    <path
        d="M0.533338 11.5016C0.764133 11.6779 1.04484 11.7733 1.33334 11.7733C1.54003 11.7716 1.7436 11.7217 1.92847 11.6275C2.11335 11.5333 2.27464 11.3973 2.4 11.2299C2.89679 10.555 3.54097 10.0072 4.28153 9.62992C5.02209 9.25265 5.8387 9.05623 6.66667 9.05623C7.49464 9.05623 8.31125 9.25265 9.05181 9.62992C9.79237 10.0072 10.4366 10.555 10.9333 11.2299H10.9444L11.0222 11.3204C11.0222 11.3318 11.0333 11.3318 11.0444 11.3431L11.1111 11.411L11.1556 11.4563L11.2 11.4903C11.2029 11.4903 11.2058 11.4914 11.2079 11.4936C11.2099 11.4957 11.2111 11.4986 11.2111 11.5016L11.2444 11.5242L11.3111 11.5695L11.3444 11.5921L11.4333 11.6261C11.4333 11.6374 11.4444 11.6374 11.4556 11.6374L11.5556 11.6827H11.5667C11.6445 11.7173 11.7268 11.7402 11.8111 11.7506H12.1667L12.2667 11.728H12.3111C12.4034 11.7041 12.4928 11.6699 12.5778 11.6261L12.6222 11.6035L12.7 11.5582L12.7556 11.5242L12.8 11.4903L12.8222 11.4676L12.8667 11.4336L12.9444 11.3657L12.9778 11.3318L13.0556 11.2299H13.0667C13.5635 10.555 14.2076 10.0072 14.9482 9.62992C15.6888 9.25265 16.5054 9.05623 17.3333 9.05623C18.1613 9.05623 18.9779 9.25265 19.7185 9.62992C20.459 10.0072 21.1032 10.555 21.6 11.2299C21.8122 11.5181 22.128 11.7087 22.4781 11.7596C22.8282 11.8106 23.1838 11.7178 23.4667 11.5016C23.7496 11.2854 23.9366 10.9636 23.9866 10.6069C24.0366 10.2502 23.9455 9.88788 23.7333 9.59964C22.9902 8.58975 22.0281 7.76839 20.9222 7.19958C21.4063 6.5244 21.6974 5.72586 21.7634 4.89243C21.8294 4.05901 21.6676 3.22324 21.296 2.47776C20.9243 1.73227 20.3574 1.10617 19.658 0.668831C18.9586 0.231495 18.154 0 17.3333 0C16.5127 0 15.7081 0.231495 15.0087 0.668831C14.3093 1.10617 13.7423 1.73227 13.3707 2.47776C12.9991 3.22324 12.8373 4.05901 12.9033 4.89243C12.9692 5.72586 13.2604 6.5244 13.7444 7.19958C13.1127 7.5225 12.526 7.92988 12 8.41093C11.474 7.92988 10.8873 7.5225 10.2556 7.19958C10.7396 6.5244 11.0308 5.72586 11.0967 4.89243C11.1627 4.05901 11.0009 3.22324 10.6293 2.47776C10.2577 1.73227 9.69075 1.10617 8.99132 0.668831C8.2919 0.231495 7.4873 0 6.66667 0C5.84604 0 5.04144 0.231495 4.34201 0.668831C3.64259 1.10617 3.07566 1.73227 2.70405 2.47776C2.33243 3.22324 2.17064 4.05901 2.23661 4.89243C2.30258 5.72586 2.59372 6.5244 3.07778 7.19958C1.97187 7.76839 1.00983 8.58975 0.266672 9.59964C0.0544989 9.88788 -0.0366036 10.2502 0.0134061 10.6069C0.0634158 10.9636 0.250441 11.2854 0.533338 11.5016ZM15.5556 4.52782C15.5556 4.16956 15.6598 3.81935 15.8552 3.52147C16.0505 3.2236 16.3282 2.99143 16.653 2.85433C16.9778 2.71723 17.3353 2.68136 17.6802 2.75125C18.025 2.82115 18.3418 2.99366 18.5904 3.24699C18.839 3.50031 19.0084 3.82307 19.0769 4.17444C19.1455 4.52581 19.1103 4.89001 18.9758 5.22099C18.8412 5.55198 18.6134 5.83488 18.321 6.03391C18.0287 6.23295 17.6849 6.33918 17.3333 6.33918C16.8618 6.33918 16.4097 6.14834 16.0763 5.80864C15.7429 5.46895 15.5556 5.00822 15.5556 4.52782ZM4.88889 4.52782C4.88889 4.16956 4.99316 3.81935 5.1885 3.52147C5.38385 3.2236 5.6615 2.99143 5.98634 2.85433C6.31119 2.71723 6.66864 2.68136 7.0135 2.75125C7.35835 2.82115 7.67512 2.99366 7.92375 3.24699C8.17237 3.50031 8.34169 3.82307 8.41029 4.17444C8.47888 4.52581 8.44368 4.89001 8.30912 5.22099C8.17457 5.55198 7.9467 5.83488 7.65435 6.03391C7.362 6.23295 7.01828 6.33918 6.66667 6.33918C6.19517 6.33918 5.74299 6.14834 5.40959 5.80864C5.07619 5.46895 4.88889 5.00822 4.88889 4.52782ZM20.9222 19.4263C21.4063 18.7511 21.6974 17.9526 21.7634 17.1192C21.8294 16.2857 21.6676 15.45 21.296 14.7045C20.9243 13.959 20.3574 13.3329 19.658 12.8956C18.9586 12.4582 18.154 12.2267 17.3333 12.2267C16.5127 12.2267 15.7081 12.4582 15.0087 12.8956C14.3093 13.3329 13.7423 13.959 13.3707 14.7045C12.9991 15.45 12.8373 16.2857 12.9033 17.1192C12.9692 17.9526 13.2604 18.7511 13.7444 19.4263C13.1127 19.7492 12.526 20.1566 12 20.6377C11.474 20.1566 10.8873 19.7492 10.2556 19.4263C10.7396 18.7511 11.0308 17.9526 11.0967 17.1192C11.1627 16.2857 11.0009 15.45 10.6293 14.7045C10.2577 13.959 9.69075 13.3329 8.99132 12.8956C8.2919 12.4582 7.4873 12.2267 6.66667 12.2267C5.84604 12.2267 5.04144 12.4582 4.34201 12.8956C3.64259 13.3329 3.07566 13.959 2.70405 14.7045C2.33243 15.45 2.17064 16.2857 2.23661 17.1192C2.30258 17.9526 2.59372 18.7511 3.07778 19.4263C1.97187 19.9951 1.00983 20.8165 0.266672 21.8264C0.118103 22.0282 0.0276304 22.2682 0.00539314 22.5195C-0.0168441 22.7707 0.0300321 23.0234 0.140769 23.249C0.251506 23.4747 0.421729 23.6645 0.632364 23.7971C0.842998 23.9297 1.08572 24 1.33334 24C1.54003 23.9983 1.7436 23.9484 1.92847 23.8542C2.11335 23.76 2.27464 23.624 2.4 23.4566C2.89679 22.7817 3.54097 22.2339 4.28153 21.8566C5.02209 21.4794 5.8387 21.283 6.66667 21.283C7.49464 21.283 8.31125 21.4794 9.05181 21.8566C9.79237 22.2339 10.4366 22.7817 10.9333 23.4566H10.9444L11.0222 23.5472C11.0222 23.5532 11.0246 23.5589 11.0287 23.5632C11.0329 23.5674 11.0386 23.5698 11.0444 23.5698L11.1111 23.6377L11.1556 23.683L11.2 23.717H11.2111L11.2444 23.7396L11.3111 23.7849L11.3444 23.8075L11.4333 23.8415L11.4556 23.8641L11.5556 23.8981H11.5667C11.6445 23.9327 11.7268 23.9556 11.8111 23.966H12.1667L12.2667 23.9434H12.3111L12.5778 23.8415L12.6222 23.8189L12.7 23.7736L12.7556 23.7396L12.8 23.7057L12.8222 23.683L12.8667 23.649L12.9444 23.5811L12.9778 23.5472L13.0556 23.4453H13.0667C13.5635 22.7704 14.2076 22.2226 14.9482 21.8453C15.6888 21.468 16.5054 21.2716 17.3333 21.2716C18.1613 21.2716 18.9779 21.468 19.7185 21.8453C20.459 22.2226 21.1032 22.7704 21.6 23.4453C21.8122 23.7335 22.128 23.9241 22.4781 23.975C22.8282 24.026 23.1838 23.9332 23.4667 23.717C23.7496 23.5008 23.9366 23.179 23.9866 22.8223C24.0366 22.4656 23.9455 22.1033 23.7333 21.815C22.9889 20.8093 22.027 19.9919 20.9222 19.4263ZM4.88889 16.7545C4.88889 16.3963 4.99316 16.0461 5.1885 15.7482C5.38385 15.4503 5.6615 15.2181 5.98634 15.0811C6.31119 14.944 6.66864 14.9081 7.0135 14.978C7.35835 15.0479 7.67512 15.2204 7.92375 15.4737C8.17237 15.727 8.34169 16.0498 8.41029 16.4012C8.47888 16.7525 8.44368 17.1167 8.30912 17.4477C8.17457 17.7787 7.9467 18.0616 7.65435 18.2606C7.362 18.4597 7.01828 18.5659 6.66667 18.5659C6.19517 18.5659 5.74299 18.3751 5.40959 18.0354C5.07619 17.6957 4.88889 17.2349 4.88889 16.7545ZM15.5556 16.7545C15.5556 16.3963 15.6598 16.0461 15.8552 15.7482C16.0505 15.4503 16.3282 15.2181 16.653 15.0811C16.9778 14.944 17.3353 14.9081 17.6802 14.978C18.025 15.0479 18.3418 15.2204 18.5904 15.4737C18.839 15.727 19.0084 16.0498 19.0769 16.4012C19.1455 16.7525 19.1103 17.1167 18.9758 17.4477C18.8412 17.7787 18.6134 18.0616 18.321 18.2606C18.0287 18.4597 17.6849 18.5659 17.3333 18.5659C16.8618 18.5659 16.4097 18.3751 16.0763 18.0354C15.7429 17.6957 15.5556 17.2349 15.5556 16.7545Z"
        fill="#1A3D7D" />
</svg>