<svg width="14" height="12" viewBox="0 0 14 12" fill="none" xmlns="http://www.w3.org/2000/svg">
<g id="money-check-dollar-solid (1) 2" clip-path="url(#clip0_718_4306)">
<path id="Vector" d="M1.5 1.5C0.672656 1.5 0 2.17266 0 3V9C0 9.82734 0.672656 10.5 1.5 10.5H12C12.8273 10.5 13.5 9.82734 13.5 9V3C13.5 2.17266 12.8273 1.5 12 1.5H1.5ZM6.375 4.5H11.625C11.8312 4.5 12 4.66875 12 4.875C12 5.08125 11.8312 5.25 11.625 5.25H6.375C6.16875 5.25 6 5.08125 6 4.875C6 4.66875 6.16875 4.5 6.375 4.5ZM6 7.125C6 6.91875 6.16875 6.75 6.375 6.75H11.625C11.8312 6.75 12 6.91875 12 7.125C12 7.33125 11.8312 7.5 11.625 7.5H6.375C6.16875 7.5 6 7.33125 6 7.125ZM3.84375 3.5625V3.88828C4.01953 3.91641 4.18594 3.95625 4.33828 3.99844C4.58906 4.06406 4.73672 4.32188 4.67109 4.57266C4.60547 4.82344 4.34766 4.97109 4.09687 4.90547C3.83906 4.8375 3.59062 4.78828 3.36562 4.78359C3.18047 4.78125 2.99062 4.82578 2.86172 4.90078C2.74922 4.96641 2.71641 5.03203 2.71641 5.11875C2.71641 5.16094 2.71875 5.20078 2.84062 5.27578C2.98828 5.36484 3.20391 5.43281 3.50391 5.52188L3.52031 5.52656C3.78281 5.60625 4.12031 5.70703 4.38984 5.87813C4.69219 6.06797 4.95937 6.37734 4.96641 6.85312C4.97344 7.34297 4.72031 7.69922 4.38516 7.90781C4.21641 8.01328 4.02891 8.07891 3.84141 8.11875V8.4375C3.84141 8.69531 3.63047 8.90625 3.37266 8.90625C3.11484 8.90625 2.90391 8.69531 2.90391 8.4375V8.09531C2.6625 8.04375 2.43516 7.96641 2.24297 7.89844C2.19375 7.88203 2.14687 7.86562 2.1 7.84922C1.85391 7.76719 1.72266 7.50234 1.80469 7.25625C1.88672 7.01016 2.15156 6.87891 2.39766 6.96094C2.45625 6.97969 2.5125 7.00078 2.56641 7.01719C2.88516 7.125 3.12891 7.20703 3.38906 7.21641C3.59062 7.22344 3.77578 7.17891 3.89062 7.10625C3.98672 7.04766 4.03125 6.97734 4.02891 6.86016C4.02891 6.79219 4.01016 6.74297 3.89062 6.66797C3.74297 6.57422 3.52969 6.50625 3.23437 6.41719L3.19453 6.40547C2.93906 6.32812 2.61797 6.23203 2.36016 6.07734C2.0625 5.89687 1.78359 5.59688 1.78125 5.12344C1.77891 4.62891 2.05781 4.28672 2.38594 4.09453C2.54766 3.99844 2.72578 3.93516 2.90625 3.89531V3.5625C2.90625 3.30469 3.11719 3.09375 3.375 3.09375C3.63281 3.09375 3.84375 3.30469 3.84375 3.5625Z" fill="#1A3D7D"/>
</g>
<defs>
<clipPath id="clip0_718_4306">
<rect width="13.5" height="12" fill="white"/>
</clipPath>
</defs>
</svg>
