<svg width="24" height="24" viewBox="0 0 24 24" fill="none" xmlns="http://www.w3.org/2000/svg">
  <circle cx="12" cy="12" r="11" stroke="#F40101" stroke-width="2" />
  <svg x="5" y="1" width="14" height="21" viewBox="0 0 14 21" fill="none"
    xmlns="http://www.w3.org/2000/svg">
    <g clip-path="url(#clip0_718_4305)">
      <path
        d="M1.5 6.5C0.672656 6.5 0 7.17266 0 8V14C0 14.8273 0.672656 15.5 1.5 15.5H12C12.8273 15.5 13.5 14.8273 13.5 14V8C13.5 7.17266 12.8273 6.5 12 6.5H1.5ZM6.375 9.5H11.625C11.8312 9.5 12 9.66875 12 9.875C12 10.0812 11.8312 10.25 11.625 10.25H6.375C6.16875 10.25 6 10.0812 6 9.875C6 9.66875 6.16875 9.5 6.375 9.5ZM6 12.125C6 11.9187 6.16875 11.75 6.375 11.75H11.625C11.8312 11.75 12 11.9187 12 12.125C12 12.3313 11.8312 12.5 11.625 12.5H6.375C6.16875 12.5 6 12.3313 6 12.125ZM3.84375 8.5625V8.88828C4.01953 8.91641 4.18594 8.95625 4.33828 8.99844C4.58906 9.06406 4.73672 9.32188 4.67109 9.57266C4.60547 9.82344 4.34766 9.97109 4.09687 9.90547C3.83906 9.8375 3.59062 9.78828 3.36562 9.78359C3.18047 9.78125 2.99062 9.82578 2.86172 9.90078C2.74922 9.96641 2.71641 10.032 2.71641 10.1187C2.71641 10.1609 2.71875 10.2008 2.84062 10.2758C2.98828 10.3648 3.20391 10.4328 3.50391 10.5219L3.52031 10.5266C3.78281 10.6063 4.12031 10.707 4.38984 10.8781C4.69219 11.068 4.95937 11.3773 4.96641 11.8531C4.97344 12.343 4.72031 12.6992 4.38516 12.9078C4.21641 13.0133 4.02891 13.0789 3.84141 13.1187V13.4375C3.84141 13.6953 3.63047 13.9062 3.37266 13.9062C3.11484 13.9062 2.90391 13.6953 2.90391 13.4375V13.0953C2.6625 13.0437 2.43516 12.9664 2.24297 12.8984C2.19375 12.882 2.14687 12.8656 2.1 12.8492C1.85391 12.7672 1.72266 12.5023 1.80469 12.2563C1.88672 12.0102 2.15156 11.8789 2.39766 11.9609C2.45625 11.9797 2.5125 12.0008 2.56641 12.0172C2.88516 12.125 3.12891 12.207 3.38906 12.2164C3.59062 12.2234 3.77578 12.1789 3.89062 12.1063C3.98672 12.0477 4.03125 11.9773 4.02891 11.8602C4.02891 11.7922 4.01016 11.743 3.89062 11.668C3.74297 11.5742 3.52969 11.5062 3.23437 11.4172L3.19453 11.4055C2.93906 11.3281 2.61797 11.232 2.36016 11.0773C2.0625 10.8969 1.78359 10.5969 1.78125 10.1234C1.77891 9.62891 2.05781 9.28672 2.38594 9.09453C2.54766 8.99844 2.72578 8.93516 2.90625 8.89531V8.5625C2.90625 8.30469 3.11719 8.09375 3.375 8.09375C3.63281 8.09375 3.84375 8.30469 3.84375 8.5625Z"
        fill="#1A3D7D" />
    </g>
    <line x1="0.845489" y1="1.46601" x2="12.8455" y2="20.466" stroke="#F40101" stroke-width="2" />
    <defs>
      <clipPath id="clip0_718_4305">
        <rect width="13.5" height="12" transform="translate(0 5)" />
      </clipPath>
    </defs>
  </svg>

</svg>