<svg width="59" height="49" viewBox="0 0 59 49" fill="none" xmlns="http://www.w3.org/2000/svg">
<g id="Component 16">
<path id="Vector" d="M23.5897 42C24.5726 42 25.4085 41.708 26.0973 41.124C26.7861 40.54 27.1298 39.832 27.1282 39H20.0513C20.0513 39.8333 20.3957 40.542 21.0845 41.126C21.7733 41.71 22.6084 42.0013 23.5897 42ZM11.7949 37H35.3846V33H33.0256V27.8C33.0256 25.7667 32.406 23.908 31.1668 22.224C29.9275 20.54 28.1882 19.4653 25.9487 19V18C25.9487 17.4333 25.7223 16.958 25.2693 16.574C24.8164 16.19 24.2565 15.9987 23.5897 16C22.9214 16 22.3607 16.192 21.9078 16.576C21.4549 16.96 21.2292 17.4347 21.2308 18V19C18.9897 19.4667 17.2504 20.542 16.0127 22.226C14.775 23.91 14.1554 25.768 14.1538 27.8V33H11.7949V37ZM23.5897 49C20.3265 49 17.2598 48.4747 14.3897 47.424C11.5197 46.3733 9.02308 44.9487 6.9 43.15C4.77692 41.35 3.09655 39.2333 1.85887 36.8C0.621197 34.3667 0.00157265 31.7667 0 29C0 26.2333 0.619624 23.6333 1.85887 21.2C3.09812 18.7667 4.7785 16.65 6.9 14.85C9.02308 13.05 11.5197 11.6253 14.3897 10.576C17.2598 9.52667 20.3265 9.00133 23.5897 9C26.853 9 29.9197 9.52533 32.7897 10.576C35.6598 11.6267 38.1564 13.0513 40.2795 14.85C42.4026 16.65 44.0837 18.7667 45.323 21.2C46.5622 23.6333 47.1811 26.2333 47.1795 29C47.1795 31.7667 46.5599 34.3667 45.3206 36.8C44.0814 39.2333 42.401 41.35 40.2795 43.15C38.1564 44.95 35.6598 46.3753 32.7897 47.426C29.9197 48.4767 26.853 49.0013 23.5897 49Z" fill="#1A3D7D"/>
<circle id="Ellipse 100" cx="49.5" cy="9.5" r="9.5" fill="#F40101"/>
</g>
</svg>
