          <svg
              xmlns="http://www.w3.org/2000/svg"
              width="58"
              height="50"
              viewBox="0 0 58 50"
              fill="none"
            >
              <path
                d="M26.1259 7.38636C26.7472 7.38636 27.2604 7.225 27.6657 6.90227C28.071 6.57955 28.2746 6.17273 28.2765 5.68182C28.2765 5.18939 28.0729 4.78258 27.6657 4.46136C27.2585 4.14015 26.7452 3.97879 26.1259 3.97727C25.5046 3.97727 24.9913 4.13864 24.586 4.46136C24.1807 4.78409 23.9771 5.19091 23.9752 5.68182C23.9752 6.17424 24.1788 6.58106 24.586 6.90227C24.9932 7.22348 25.5065 7.38485 26.1259 7.38636ZM43.3309 50C39.3642 50 35.9824 48.8917 33.1856 46.675C30.3889 44.4583 28.9914 41.7788 28.9934 38.6364C28.9934 35.4924 30.3917 32.8121 33.1885 30.5955C35.9853 28.3788 39.3661 27.2712 43.3309 27.2727C47.2976 27.2727 50.6793 28.3811 53.4761 30.5977C56.2728 32.8144 57.6703 35.4939 57.6684 38.6364C57.6684 41.7803 56.27 44.4606 53.4732 46.6773C50.6764 48.8939 47.2957 50.0015 43.3309 50ZM41.8971 45.4545H44.7646V39.7727H51.9334V37.5H44.7646V31.8182H41.8971V37.5H34.7284V39.7727H41.8971V45.4545ZM11.7884 18.1818H40.4634V13.6364H11.7884V18.1818ZM25.1939 45.4545H6.05336C4.47624 45.4545 3.12565 45.0091 2.00159 44.1182C0.877526 43.2273 0.316453 42.1576 0.318364 40.9091V9.09091C0.318364 7.84091 0.880394 6.77045 2.00445 5.87955C3.12851 4.98864 4.47815 4.54394 6.05336 4.54545H18.0969C18.7182 3.18182 19.7581 2.08333 21.2167 1.25C22.6753 0.416667 24.3117 0 26.1259 0C27.9419 0 29.5793 0.416667 31.0379 1.25C32.4965 2.08333 33.5355 3.18182 34.1549 4.54545H46.1984C47.7755 4.54545 49.1261 4.99091 50.2501 5.88182C51.3742 6.77273 51.9353 7.84242 51.9334 9.09091V24.3182C50.5474 23.7879 49.149 23.3902 47.7382 23.125C46.3274 22.8598 44.8583 22.7273 43.3309 22.7273C42.8051 22.7273 42.3148 22.7364 41.8598 22.7545C41.4049 22.7727 40.9394 22.8205 40.4634 22.8977V22.7273H11.7884V27.2727H29.3518C28.4915 27.9167 27.7145 28.6174 27.0205 29.375C26.3266 30.1326 25.7177 30.947 25.1939 31.8182H11.7884V36.3636H23.4734C23.3778 36.7424 23.3176 37.1121 23.2928 37.4727C23.2679 37.8333 23.2565 38.2212 23.2584 38.6364C23.2584 39.8864 23.4017 41.0515 23.6885 42.1318C23.9752 43.2121 24.477 44.3197 25.1939 45.4545Z"
                fill="#1A3D7D"
              />
            </svg>