<svg width="21" height="19" viewBox="0 0 21 19" fill="none" xmlns="http://www.w3.org/2000/svg">
    <path
        d="M16.5 4.5H4.5V0.5H16.5V4.5ZM16.5 10C16.7833 10 17.0208 9.90417 17.2125 9.7125C17.4042 9.52083 17.5 9.28333 17.5 9C17.5 8.71667 17.4042 8.47917 17.2125 8.2875C17.0208 8.09583 16.7833 8 16.5 8C16.2167 8 15.9792 8.09583 15.7875 8.2875C15.5958 8.47917 15.5 8.71667 15.5 9C15.5 9.28333 15.5958 9.52083 15.7875 9.7125C15.9792 9.90417 16.2167 10 16.5 10ZM14.5 16.5V12.5H6.5V16.5H14.5ZM16.5 18.5H4.5V14.5H0.5V8.5C0.5 7.65 0.791667 6.9375 1.375 6.3625C1.95833 5.7875 2.66667 5.5 3.5 5.5H17.5C18.35 5.5 19.0625 5.7875 19.6375 6.3625C20.2125 6.9375 20.5 7.65 20.5 8.5V14.5H16.5V18.5Z"
        fill="#367DFD" />
</svg>