<svg width="18" height="20" viewBox="0 0 18 20" fill="none" xmlns="http://www.w3.org/2000/svg">
<g id="Group">
<path id="Vector" d="M16.9321 10.9825C16.7433 12.4447 16.166 13.827 15.2622 14.9813C14.3585 16.1356 13.1623 17.0184 11.802 17.5348C10.4418 18.0513 8.96866 18.1821 7.54074 17.9131C6.11282 17.6441 4.78395 16.9856 3.69664 16.008C2.60933 15.0304 1.8046 13.7708 1.36876 12.3641C0.932916 10.9575 0.882404 9.45688 1.22264 8.02329C1.56287 6.58971 2.28102 5.2772 3.30006 4.22654C4.3191 3.17588 5.60059 2.4267 7.00709 2.05935C10.9061 1.04396 14.9421 3.08184 16.4321 6.87938" stroke="#1A3D7D" stroke-width="2" stroke-linecap="round" stroke-linejoin="round"/>
<path id="Vector_2" d="M16.999 1.80225V6.87917H11.999" stroke="#1A3D7D" stroke-width="2" stroke-linecap="round" stroke-linejoin="round"/>
</g>
</svg>
