                          <svg
                            xmlns="http://www.w3.org/2000/svg"
                            width="27"
                            height="24"
                            viewBox="0 0 27 24"
                            fill="none"
                          >
                            <g clipPath="url(#clip0_718_4296)">
                              <path
                                d="M3 3C1.34531 3 0 4.34531 0 6V18C0 19.6547 1.34531 21 3 21H24C25.6547 21 27 19.6547 27 18V6C27 4.34531 25.6547 3 24 3H3ZM12.75 9H23.25C23.6625 9 24 9.3375 24 9.75C24 10.1625 23.6625 10.5 23.25 10.5H12.75C12.3375 10.5 12 10.1625 12 9.75C12 9.3375 12.3375 9 12.75 9ZM12 14.25C12 13.8375 12.3375 13.5 12.75 13.5H23.25C23.6625 13.5 24 13.8375 24 14.25C24 14.6625 23.6625 15 23.25 15H12.75C12.3375 15 12 14.6625 12 14.25ZM7.6875 7.125V7.77656C8.03906 7.83281 8.37187 7.9125 8.67656 7.99688C9.17812 8.12813 9.47344 8.64375 9.34219 9.14531C9.21094 9.64688 8.69531 9.94219 8.19375 9.81094C7.67812 9.675 7.18125 9.57656 6.73125 9.56719C6.36094 9.5625 5.98125 9.65156 5.72344 9.80156C5.49844 9.93281 5.43281 10.0641 5.43281 10.2375C5.43281 10.3219 5.4375 10.4016 5.68125 10.5516C5.97656 10.7297 6.40781 10.8656 7.00781 11.0438L7.04062 11.0531C7.56562 11.2125 8.24062 11.4141 8.77969 11.7563C9.38437 12.1359 9.91875 12.7547 9.93281 13.7062C9.94687 14.6859 9.44062 15.3984 8.77031 15.8156C8.43281 16.0266 8.05781 16.1578 7.68281 16.2375V16.875C7.68281 17.3906 7.26094 17.8125 6.74531 17.8125C6.22969 17.8125 5.80781 17.3906 5.80781 16.875V16.1906C5.325 16.0875 4.87031 15.9328 4.48594 15.7969C4.3875 15.7641 4.29375 15.7312 4.2 15.6984C3.70781 15.5344 3.44531 15.0047 3.60937 14.5125C3.77344 14.0203 4.30312 13.7578 4.79531 13.9219C4.9125 13.9594 5.025 14.0016 5.13281 14.0344C5.77031 14.25 6.25781 14.4141 6.77812 14.4328C7.18125 14.4469 7.55156 14.3578 7.78125 14.2125C7.97344 14.0953 8.0625 13.9547 8.05781 13.7203C8.05781 13.5844 8.02031 13.4859 7.78125 13.3359C7.48594 13.1484 7.05937 13.0125 6.46875 12.8344L6.38906 12.8109C5.87812 12.6562 5.23594 12.4641 4.72031 12.1547C4.125 11.7937 3.56719 11.1938 3.5625 10.2469C3.55781 9.25781 4.11562 8.57344 4.77187 8.18906C5.09531 7.99687 5.45156 7.87031 5.8125 7.79062V7.125C5.8125 6.60938 6.23437 6.1875 6.75 6.1875C7.26562 6.1875 7.6875 6.60938 7.6875 7.125Z"
                                fill="#1A3D7D"
                              />
                            </g>
                            <defs>
                              <clipPath id="clip0_718_4296">
                                <rect width="27" height="24" fill="white" />
                              </clipPath>
                            </defs>
                          </svg>