<svg width="25" height="24" viewBox="0 0 25 24" fill="none" xmlns="http://www.w3.org/2000/svg">
<g id="Group">
<path id="Vector" fill-rule="evenodd" clip-rule="evenodd" d="M17.3811 22.133C15.9411 22.08 11.8601 21.516 7.5861 17.243C3.3131 12.969 2.7501 8.88897 2.6961 7.44797C2.6161 5.25197 4.2981 3.11897 6.2411 2.28597C6.47508 2.18494 6.7313 2.14647 6.98463 2.17435C7.23796 2.20222 7.47969 2.29548 7.6861 2.44497C9.2861 3.61097 10.3901 5.37497 11.3381 6.76197C11.5467 7.0667 11.6359 7.43752 11.5887 7.80377C11.5414 8.17002 11.3611 8.5061 11.0821 8.74797L9.1311 10.197C9.03684 10.265 8.97049 10.365 8.94438 10.4783C8.91826 10.5916 8.93415 10.7105 8.9891 10.813C9.4311 11.616 10.2171 12.812 11.1171 13.712C12.0181 14.612 13.2701 15.45 14.1291 15.942C14.2368 16.0024 14.3636 16.0193 14.4834 15.9892C14.6031 15.9591 14.7068 15.8842 14.7731 15.78L16.0431 13.847C16.2766 13.5368 16.621 13.329 17.0043 13.2672C17.3875 13.2053 17.7799 13.2941 18.0991 13.515C19.5061 14.489 21.1481 15.574 22.3501 17.113C22.5117 17.3209 22.6145 17.5684 22.6478 17.8296C22.681 18.0908 22.6435 18.3562 22.5391 18.598C21.7021 20.551 19.5841 22.214 17.3811 22.133Z" fill="black"/>
</g>
</svg>
