<svg width="19" height="25" viewBox="0 0 19 25" fill="none" xmlns="http://www.w3.org/2000/svg">
<path d="M10.1372 23.7941C12.5481 20.7769 18.0467 13.4642 18.0467 9.35669C18.0467 4.37505 14.005 0.333344 9.02335 0.333344C4.04171 0.333344 0 4.37505 0 9.35669C0 13.4642 5.4986 20.7769 7.90953 23.7941C8.48759 24.5131 9.55911 24.5131 10.1372 23.7941ZM9.02335 6.34891C9.82106 6.34891 10.5861 6.6658 11.1502 7.22987C11.7142 7.79394 12.0311 8.55898 12.0311 9.35669C12.0311 10.1544 11.7142 10.9194 11.1502 11.4835C10.5861 12.0476 9.82106 12.3645 9.02335 12.3645C8.22564 12.3645 7.4606 12.0476 6.89653 11.4835C6.33246 10.9194 6.01557 10.1544 6.01557 9.35669C6.01557 8.55898 6.33246 7.79394 6.89653 7.22987C7.4606 6.6658 8.22564 6.34891 9.02335 6.34891Z" fill="white"/>
</svg>
