<svg xmlns="http://www.w3.org/2000/svg" data-name="Layer 1" viewBox="0 0 50 62.5" x="0px" y="0px"><path d="M31,26a9,9,0,1,0-12,0,12.86,12.86,0,0,0-8.61,12.12,1.54,1.54,0,0,0,3.08,0,9.79,9.79,0,0,1,9.78-9.78h3.54a9.79,9.79,0,0,1,9.78,9.78,1.54,1.54,0,1,0,3.08,0A12.86,12.86,0,0,0,31,26ZM25,13.45a5.89,5.89,0,1,1-5.89,5.89A5.89,5.89,0,0,1,25,13.45Z"/><text x="0" y="65" fill="#000000" font-size="5px" font-weight="bold" font-family="'Helvetica Neue', Helvetica, Arial-Unicode, Arial, Sans-serif">Created by AlePio</text><text x="0" y="70" fill="#000000" font-size="5px" font-weight="bold" font-family="'Helvetica Neue', Helvetica, Arial-Unicode, Arial, Sans-serif">from the Noun Project</text></svg>