<svg width="30" height="25" viewBox="0 0 30 25" fill="none" xmlns="http://www.w3.org/2000/svg">
<path id="Vector" d="M6.75 0.333344C7.74456 0.333344 8.69839 0.728432 9.40165 1.43169C10.1049 2.13495 10.5 3.08878 10.5 4.08334C10.5 5.07791 10.1049 6.03173 9.40165 6.73499C8.69839 7.43826 7.74456 7.83334 6.75 7.83334C5.75544 7.83334 4.80161 7.43826 4.09835 6.73499C3.39509 6.03173 3 5.07791 3 4.08334C3 3.08878 3.39509 2.13495 4.09835 1.43169C4.80161 0.728432 5.75544 0.333344 6.75 0.333344ZM24 0.333344C24.9946 0.333344 25.9484 0.728432 26.6516 1.43169C27.3549 2.13495 27.75 3.08878 27.75 4.08334C27.75 5.07791 27.3549 6.03173 26.6516 6.73499C25.9484 7.43826 24.9946 7.83334 24 7.83334C23.0054 7.83334 22.0516 7.43826 21.3484 6.73499C20.6451 6.03173 20.25 5.07791 20.25 4.08334C20.25 3.08878 20.6451 2.13495 21.3484 1.43169C22.0516 0.728432 23.0054 0.333344 24 0.333344ZM0 14.3349C0 11.574 2.24062 9.33334 5.00156 9.33334H7.00312C7.74844 9.33334 8.45625 9.49741 9.09375 9.78803C9.03281 10.1255 9.00469 10.4771 9.00469 10.8333C9.00469 12.624 9.79219 14.2318 11.0344 15.3333C11.025 15.3333 11.0156 15.3333 11.0016 15.3333H0.998437C0.45 15.3333 0 14.8833 0 14.3349ZM18.9984 15.3333C18.9891 15.3333 18.9797 15.3333 18.9656 15.3333C20.2125 14.2318 20.9953 12.624 20.9953 10.8333C20.9953 10.4771 20.9625 10.1302 20.9062 9.78803C21.5438 9.49272 22.2516 9.33334 22.9969 9.33334H24.9984C27.7594 9.33334 30 11.574 30 14.3349C30 14.888 29.55 15.3333 29.0016 15.3333H18.9984ZM10.5 10.8333C10.5 9.63987 10.9741 8.49528 11.818 7.65136C12.6619 6.80745 13.8065 6.33334 15 6.33334C16.1935 6.33334 17.3381 6.80745 18.182 7.65136C19.0259 8.49528 19.5 9.63987 19.5 10.8333C19.5 12.0268 19.0259 13.1714 18.182 14.0153C17.3381 14.8592 16.1935 15.3333 15 15.3333C13.8065 15.3333 12.6619 14.8592 11.818 14.0153C10.9741 13.1714 10.5 12.0268 10.5 10.8333ZM6 23.0818C6 19.6318 8.79844 16.8333 12.2484 16.8333H17.7516C21.2016 16.8333 24 19.6318 24 23.0818C24 23.7708 23.4422 24.3333 22.7484 24.3333H7.25156C6.5625 24.3333 6 23.7755 6 23.0818Z" fill="white"/>
</svg>
