<svg width="20" height="21" viewBox="0 0 20 21" fill="none" xmlns="http://www.w3.org/2000/svg">
<g id="cash-register-solid (1) 1" clip-path="url(#clip0_702_3089)">
<path id="Vector" d="M2.5 0.538574C1.80859 0.538574 1.25 1.10576 1.25 1.8078V4.34627C1.25 5.04831 1.80859 5.6155 2.5 5.6155H5.625V6.88473H3.39844C2.16406 6.88473 1.11328 7.80095 0.925781 9.04242L0.0429688 14.98C0.015625 15.1665 0 15.3568 0 15.5472V18.3078C0 19.7079 1.12109 20.8463 2.5 20.8463H17.5C18.8789 20.8463 20 19.7079 20 18.3078V15.5472C20 15.3568 19.9844 15.1665 19.957 14.9761L19.0703 9.04242C18.8867 7.80095 17.8359 6.88473 16.6016 6.88473H8.125V5.6155H11.25C11.9414 5.6155 12.5 5.04831 12.5 4.34627V1.8078C12.5 1.10576 11.9414 0.538574 11.25 0.538574H2.5ZM3.75 2.44242H10C10.3438 2.44242 10.625 2.728 10.625 3.07704C10.625 3.42607 10.3438 3.71165 10 3.71165H3.75C3.40625 3.71165 3.125 3.42607 3.125 3.07704C3.125 2.728 3.40625 2.44242 3.75 2.44242ZM2.5 17.6732C2.5 17.3242 2.78125 17.0386 3.125 17.0386H16.875C17.2188 17.0386 17.5 17.3242 17.5 17.6732C17.5 18.0222 17.2188 18.3078 16.875 18.3078H3.125C2.78125 18.3078 2.5 18.0222 2.5 17.6732ZM4.375 11.0097C4.12636 11.0097 3.8879 10.9094 3.71209 10.7309C3.53627 10.5524 3.4375 10.3103 3.4375 10.0578C3.4375 9.80534 3.53627 9.56321 3.71209 9.38469C3.8879 9.20617 4.12636 9.10588 4.375 9.10588C4.62364 9.10588 4.8621 9.20617 5.03791 9.38469C5.21373 9.56321 5.3125 9.80534 5.3125 10.0578C5.3125 10.3103 5.21373 10.5524 5.03791 10.7309C4.8621 10.9094 4.62364 11.0097 4.375 11.0097ZM9.0625 10.0578C9.0625 10.3103 8.96373 10.5524 8.78791 10.7309C8.6121 10.9094 8.37364 11.0097 8.125 11.0097C7.87636 11.0097 7.6379 10.9094 7.46209 10.7309C7.28627 10.5524 7.1875 10.3103 7.1875 10.0578C7.1875 9.80534 7.28627 9.56321 7.46209 9.38469C7.6379 9.20617 7.87636 9.10588 8.125 9.10588C8.37364 9.10588 8.6121 9.20617 8.78791 9.38469C8.96373 9.56321 9.0625 9.80534 9.0625 10.0578ZM6.25 14.1828C6.00136 14.1828 5.7629 14.0825 5.58709 13.904C5.41127 13.7255 5.3125 13.4833 5.3125 13.2309C5.3125 12.9784 5.41127 12.7363 5.58709 12.5578C5.7629 12.3793 6.00136 12.279 6.25 12.279C6.49864 12.279 6.7371 12.3793 6.91291 12.5578C7.08873 12.7363 7.1875 12.9784 7.1875 13.2309C7.1875 13.4833 7.08873 13.7255 6.91291 13.904C6.7371 14.0825 6.49864 14.1828 6.25 14.1828ZM12.8125 10.0578C12.8125 10.3103 12.7137 10.5524 12.5379 10.7309C12.3621 10.9094 12.1236 11.0097 11.875 11.0097C11.6264 11.0097 11.3879 10.9094 11.2121 10.7309C11.0363 10.5524 10.9375 10.3103 10.9375 10.0578C10.9375 9.80534 11.0363 9.56321 11.2121 9.38469C11.3879 9.20617 11.6264 9.10588 11.875 9.10588C12.1236 9.10588 12.3621 9.20617 12.5379 9.38469C12.7137 9.56321 12.8125 9.80534 12.8125 10.0578ZM10 14.1828C9.75136 14.1828 9.5129 14.0825 9.33709 13.904C9.16127 13.7255 9.0625 13.4833 9.0625 13.2309C9.0625 12.9784 9.16127 12.7363 9.33709 12.5578C9.5129 12.3793 9.75136 12.279 10 12.279C10.2486 12.279 10.4871 12.3793 10.6629 12.5578C10.8387 12.7363 10.9375 12.9784 10.9375 13.2309C10.9375 13.4833 10.8387 13.7255 10.6629 13.904C10.4871 14.0825 10.2486 14.1828 10 14.1828ZM16.5625 10.0578C16.5625 10.1828 16.5382 10.3066 16.4911 10.4221C16.444 10.5376 16.375 10.6425 16.2879 10.7309C16.2009 10.8193 16.0975 10.8894 15.9838 10.9373C15.87 10.9851 15.7481 11.0097 15.625 11.0097C15.5019 11.0097 15.38 10.9851 15.2662 10.9373C15.1525 10.8894 15.0491 10.8193 14.9621 10.7309C14.875 10.6425 14.806 10.5376 14.7589 10.4221C14.7118 10.3066 14.6875 10.1828 14.6875 10.0578C14.6875 9.9328 14.7118 9.80901 14.7589 9.69352C14.806 9.57803 14.875 9.47309 14.9621 9.38469C15.0491 9.2963 15.1525 9.22618 15.2662 9.17834C15.38 9.1305 15.5019 9.10588 15.625 9.10588C15.7481 9.10588 15.87 9.1305 15.9838 9.17834C16.0975 9.22618 16.2009 9.2963 16.2879 9.38469C16.375 9.47309 16.444 9.57803 16.4911 9.69352C16.5382 9.80901 16.5625 9.9328 16.5625 10.0578ZM13.75 14.1828C13.5014 14.1828 13.2629 14.0825 13.0871 13.904C12.9113 13.7255 12.8125 13.4833 12.8125 13.2309C12.8125 12.9784 12.9113 12.7363 13.0871 12.5578C13.2629 12.3793 13.5014 12.279 13.75 12.279C13.9986 12.279 14.2371 12.3793 14.4129 12.5578C14.5887 12.7363 14.6875 12.9784 14.6875 13.2309C14.6875 13.4833 14.5887 13.7255 14.4129 13.904C14.2371 14.0825 13.9986 14.1828 13.75 14.1828Z" fill="#1A3D7D"/>
</g>
<defs>
<clipPath id="clip0_702_3089">
<rect width="20" height="20.3077" fill="white" transform="translate(0 0.538574)"/>
</clipPath>
</defs>
</svg>
