    <svg
              xmlns="http://www.w3.org/2000/svg"
              width="51"
              height="50"
              viewBox="0 0 51 50"
              fill="none"
            >
              <g clipPath="url(#clip0_43_4074)">
                <path
                  d="M6.26562 0C4.53711 0 3.14062 1.39648 3.14062 3.125V9.375C3.14062 11.1035 4.53711 12.5 6.26562 12.5H14.0781V15.625H8.51172C5.42578 15.625 2.79883 17.8809 2.33008 20.9375L0.123047 35.5566C0.0546875 36.0156 0.015625 36.4844 0.015625 36.9531V43.75C0.015625 47.1973 2.81836 50 6.26562 50H43.7656C47.2129 50 50.0156 47.1973 50.0156 43.75V36.9531C50.0156 36.4844 49.9766 36.0156 49.9082 35.5469L47.6914 20.9375C47.2324 17.8809 44.6055 15.625 41.5195 15.625H20.3281V12.5H28.1406C29.8691 12.5 31.2656 11.1035 31.2656 9.375V3.125C31.2656 1.39648 29.8691 0 28.1406 0H6.26562ZM9.39062 4.6875H25.0156C25.875 4.6875 26.5781 5.39062 26.5781 6.25C26.5781 7.10938 25.875 7.8125 25.0156 7.8125H9.39062C8.53125 7.8125 7.82812 7.10938 7.82812 6.25C7.82812 5.39062 8.53125 4.6875 9.39062 4.6875ZM6.26562 42.1875C6.26562 41.3281 6.96875 40.625 7.82812 40.625H42.2031C43.0625 40.625 43.7656 41.3281 43.7656 42.1875C43.7656 43.0469 43.0625 43.75 42.2031 43.75H7.82812C6.96875 43.75 6.26562 43.0469 6.26562 42.1875ZM10.9531 25.7812C10.3315 25.7812 9.73538 25.5343 9.29584 25.0948C8.85631 24.6552 8.60938 24.0591 8.60938 23.4375C8.60938 22.8159 8.85631 22.2198 9.29584 21.7802C9.73538 21.3407 10.3315 21.0938 10.9531 21.0938C11.5747 21.0938 12.1709 21.3407 12.6104 21.7802C13.0499 22.2198 13.2969 22.8159 13.2969 23.4375C13.2969 24.0591 13.0499 24.6552 12.6104 25.0948C12.1709 25.5343 11.5747 25.7812 10.9531 25.7812ZM22.6719 23.4375C22.6719 24.0591 22.4249 24.6552 21.9854 25.0948C21.5459 25.5343 20.9497 25.7812 20.3281 25.7812C19.7065 25.7812 19.1104 25.5343 18.6708 25.0948C18.2313 24.6552 17.9844 24.0591 17.9844 23.4375C17.9844 22.8159 18.2313 22.2198 18.6708 21.7802C19.1104 21.3407 19.7065 21.0938 20.3281 21.0938C20.9497 21.0938 21.5459 21.3407 21.9854 21.7802C22.4249 22.2198 22.6719 22.8159 22.6719 23.4375ZM15.6406 33.5938C15.019 33.5938 14.4229 33.3468 13.9833 32.9073C13.5438 32.4677 13.2969 31.8716 13.2969 31.25C13.2969 30.6284 13.5438 30.0323 13.9833 29.5927C14.4229 29.1532 15.019 28.9062 15.6406 28.9062C16.2622 28.9062 16.8584 29.1532 17.2979 29.5927C17.7374 30.0323 17.9844 30.6284 17.9844 31.25C17.9844 31.8716 17.7374 32.4677 17.2979 32.9073C16.8584 33.3468 16.2622 33.5938 15.6406 33.5938ZM32.0469 23.4375C32.0469 24.0591 31.7999 24.6552 31.3604 25.0948C30.9209 25.5343 30.3247 25.7812 29.7031 25.7812C29.0815 25.7812 28.4854 25.5343 28.0458 25.0948C27.6063 24.6552 27.3594 24.0591 27.3594 23.4375C27.3594 22.8159 27.6063 22.2198 28.0458 21.7802C28.4854 21.3407 29.0815 21.0938 29.7031 21.0938C30.3247 21.0938 30.9209 21.3407 31.3604 21.7802C31.7999 22.2198 32.0469 22.8159 32.0469 23.4375ZM25.0156 33.5938C24.394 33.5938 23.7979 33.3468 23.3583 32.9073C22.9188 32.4677 22.6719 31.8716 22.6719 31.25C22.6719 30.6284 22.9188 30.0323 23.3583 29.5927C23.7979 29.1532 24.394 28.9062 25.0156 28.9062C25.6372 28.9062 26.2334 29.1532 26.6729 29.5927C27.1124 30.0323 27.3594 30.6284 27.3594 31.25C27.3594 31.8716 27.1124 32.4677 26.6729 32.9073C26.2334 33.3468 25.6372 33.5938 25.0156 33.5938ZM41.4219 23.4375C41.4219 23.7453 41.3613 24.0501 41.2435 24.3344C41.1257 24.6188 40.953 24.8771 40.7354 25.0948C40.5178 25.3124 40.2594 25.4851 39.975 25.6028C39.6907 25.7206 39.3859 25.7812 39.0781 25.7812C38.7703 25.7812 38.4656 25.7206 38.1812 25.6028C37.8969 25.4851 37.6385 25.3124 37.4208 25.0948C37.2032 24.8771 37.0306 24.6188 36.9128 24.3344C36.795 24.0501 36.7344 23.7453 36.7344 23.4375C36.7344 23.1297 36.795 22.8249 36.9128 22.5406C37.0306 22.2562 37.2032 21.9979 37.4208 21.7802C37.6385 21.5626 37.8969 21.3899 38.1812 21.2722C38.4656 21.1544 38.7703 21.0938 39.0781 21.0938C39.3859 21.0938 39.6907 21.1544 39.975 21.2722C40.2594 21.3899 40.5178 21.5626 40.7354 21.7802C40.953 21.9979 41.1257 22.2562 41.2435 22.5406C41.3613 22.8249 41.4219 23.1297 41.4219 23.4375ZM34.3906 33.5938C33.769 33.5938 33.1729 33.3468 32.7333 32.9073C32.2938 32.4677 32.0469 31.8716 32.0469 31.25C32.0469 30.6284 32.2938 30.0323 32.7333 29.5927C33.1729 29.1532 33.769 28.9062 34.3906 28.9062C35.0122 28.9062 35.6084 29.1532 36.0479 29.5927C36.4874 30.0323 36.7344 30.6284 36.7344 31.25C36.7344 31.8716 36.4874 32.4677 36.0479 32.9073C35.6084 33.3468 35.0122 33.5938 34.3906 33.5938Z"
                  fill="#1A3D7D"
                />
              </g>
              <defs>
                <clipPath id="clip0_43_4074">
                  <rect
                    width="50"
                    height="50"
                    fill="white"
                    transform="translate(0.015625)"
                  />
                </clipPath>
              </defs>
            </svg>