<svg width="11" height="24" viewBox="0 0 11 24" fill="none" xmlns="http://www.w3.org/2000/svg">
    <g clip-path="url(#clip0_441_3092)">
        <rect width="10.757" height="24" fill="#1A3D7D" />
        <path fill-rule="evenodd" clip-rule="evenodd"
            d="M2.10165 12.8194H8.65494C8.70419 12.8194 8.75296 12.8291 8.79847 12.8479C8.84397 12.8668 8.88531 12.8944 8.92014 12.9292C8.95497 12.9641 8.9826 13.0054 9.00144 13.0509C9.02029 13.0964 9.02999 13.1452 9.02999 13.1944V19.6804C9.02999 19.7296 9.02029 19.7784 9.00144 19.8239C8.9826 19.8694 8.95497 19.9107 8.92014 19.9456C8.88531 19.9804 8.84397 20.008 8.79847 20.0269C8.75296 20.0457 8.70419 20.0554 8.65494 20.0554H2.10179C2.05254 20.0554 2.00377 20.0457 1.95826 20.0269C1.91276 20.008 1.87141 19.9804 1.83659 19.9456C1.80176 19.9107 1.77413 19.8694 1.75529 19.8239C1.73644 19.7784 1.72674 19.7296 1.72674 19.6804V13.1944C1.72674 13.1452 1.73644 13.0964 1.75529 13.0509C1.77413 13.0054 1.80176 12.9641 1.83659 12.9292C1.87141 12.8944 1.91276 12.8668 1.95826 12.8479C2.00377 12.8291 2.05254 12.8194 2.10179 12.8194H2.10165ZM0.876941 10.459C0.6445 10.4594 0.421707 10.552 0.257346 10.7163C0.0929854 10.8807 0.000449708 11.1035 0 11.3359V21.6659H10.7569V11.3359C10.7564 11.1035 10.6639 10.8807 10.4995 10.7163C10.3352 10.552 10.1124 10.4594 9.87993 10.459H0.876941ZM6.86407 12.0244C6.86407 11.9515 6.8857 11.8802 6.92621 11.8196C6.96673 11.7589 7.02431 11.7117 7.09169 11.6838C7.15906 11.6559 7.2332 11.6486 7.30473 11.6628C7.37625 11.677 7.44195 11.7121 7.49352 11.7637C7.54508 11.8153 7.5802 11.881 7.59443 11.9525C7.60866 12.024 7.60135 12.0982 7.57345 12.1655C7.54554 12.2329 7.49828 12.2905 7.43764 12.331C7.37701 12.3715 7.30572 12.3931 7.23279 12.3931C7.135 12.3931 7.04122 12.3543 6.97207 12.2851C6.90293 12.216 6.86408 12.1222 6.86407 12.0244ZM3.15522 12.0244C3.15522 11.9515 3.17684 11.8802 3.21736 11.8196C3.25787 11.7589 3.31546 11.7117 3.38283 11.6838C3.45021 11.6559 3.52434 11.6486 3.59587 11.6628C3.66739 11.677 3.73309 11.7121 3.78466 11.7637C3.83623 11.8153 3.87134 11.881 3.88557 11.9525C3.8998 12.024 3.8925 12.0982 3.86459 12.1655C3.83668 12.2329 3.78942 12.2905 3.72879 12.331C3.66815 12.3715 3.59686 12.3931 3.52394 12.3931C3.42615 12.3931 3.33236 12.3543 3.26321 12.2851C3.19407 12.216 3.15522 12.1222 3.15522 12.0244Z"
            fill="#F0F4FD" />
        <path
            d="M1.84443 1.51563H8.82395C8.87321 1.51562 8.92198 1.52532 8.96748 1.54417C9.01299 1.56302 9.05433 1.59064 9.08916 1.62547C9.12398 1.6603 9.15161 1.70164 9.17046 1.74715C9.1893 1.79265 9.199 1.84142 9.199 1.89067V5.1065C8.26553 5.26456 6.60938 5.45877 5.43853 5.11325C4.15223 4.7337 2.46051 5.003 1.46938 5.22659V1.89081C1.46938 1.84156 1.47908 1.79279 1.49792 1.74729C1.51677 1.70178 1.5444 1.66044 1.57922 1.62561C1.61405 1.59078 1.6554 1.56316 1.7009 1.54431C1.7464 1.52546 1.79517 1.51576 1.84443 1.51577V1.51563ZM9.199 5.86152V6.54383C9.19694 7.30822 8.89238 8.04071 8.35187 8.58121C7.81137 9.12172 7.07888 9.42628 6.31449 9.42834H4.35389C3.58945 9.42632 2.85691 9.12175 2.31637 8.58121C1.77583 8.04067 1.47126 7.30813 1.46924 6.54369V5.99258C2.34716 5.7808 4.01695 5.47353 5.22745 5.83072C6.47846 6.19986 8.16301 6.02886 9.19886 5.86138L9.199 5.86152Z"
            fill="#F0F4FD" />
        <path
            d="M8.81128 2.26604H1.85763C1.55743 2.26507 1.26981 2.14539 1.05753 1.93312C0.845259 1.72084 0.725577 1.43322 0.724609 1.13302C0.724609 0.511033 1.2348 0 1.85763 0H8.81128C9.43327 0 9.9443 0.51019 9.9443 1.13302C9.94348 1.43326 9.82384 1.72097 9.61154 1.93328C9.39923 2.14558 9.11152 2.26522 8.81128 2.26604Z"
            fill="#F0F4FD" />
        <path
            d="M6.37157 11.209H4.38481C4.33556 11.209 4.28679 11.1993 4.24129 11.1804C4.19578 11.1616 4.15444 11.134 4.11961 11.0991C4.08478 11.0643 4.05716 11.023 4.03831 10.9775C4.01946 10.932 4.00976 10.8832 4.00977 10.8339V9.05349C4.00976 9.00423 4.01946 8.95546 4.03831 8.90996C4.05716 8.86445 4.08478 8.82311 4.11961 8.78828C4.15444 8.75346 4.19578 8.72583 4.24129 8.70698C4.28679 8.68814 4.33556 8.67844 4.38481 8.67844H6.31448V8.67942C6.32179 8.67886 6.3291 8.67858 6.33642 8.67844V8.67942C6.34795 8.67844 6.35962 8.67773 6.37143 8.67773C6.42068 8.67773 6.46945 8.68743 6.51496 8.70628C6.56046 8.72513 6.60181 8.75275 6.63663 8.78758C6.67146 8.82241 6.69909 8.86375 6.71794 8.90926C6.73678 8.95476 6.74648 9.00353 6.74648 9.05278V10.8339C6.74648 10.8832 6.73678 10.932 6.71794 10.9775C6.69909 11.023 6.67146 11.0643 6.63663 11.0991C6.60181 11.134 6.56046 11.1616 6.51496 11.1804C6.46945 11.1993 6.42068 11.209 6.37143 11.209H6.37157Z"
            fill="#F0F4FD" />
        <path
            d="M4.15449 17.5459H6.60264C6.65189 17.5459 6.70066 17.5556 6.74616 17.5744C6.79167 17.5933 6.83301 17.6209 6.86784 17.6557C6.90267 17.6906 6.93029 17.7319 6.94914 17.7774C6.96799 17.8229 6.97769 17.8717 6.97768 17.9209C6.9777 17.9497 6.97444 17.9783 6.96798 18.0063L6.59518 20.1598L6.59546 20.1608C6.58038 20.2479 6.53503 20.3269 6.46742 20.3838C6.39981 20.4407 6.31427 20.4719 6.2259 20.4719H4.53108C4.4392 20.4718 4.35053 20.4381 4.28187 20.377C4.21321 20.316 4.16934 20.2318 4.15857 20.1406L3.78534 17.9846L3.78478 17.9848C3.76784 17.8868 3.79051 17.7861 3.84782 17.7048C3.90513 17.6235 3.99237 17.5683 4.09036 17.5514C4.1115 17.5478 4.1329 17.5459 4.15435 17.5459H4.15449Z"
            fill="#F0F4FD" />
        <path
            d="M5.00332 14.3919V14.5718C5.00332 14.6713 5.04283 14.7667 5.11316 14.837C5.1835 14.9073 5.2789 14.9468 5.37836 14.9468C5.47783 14.9468 5.57323 14.9073 5.64356 14.837C5.7139 14.7667 5.75341 14.6713 5.75341 14.5718V14.3919H6.07685C6.1261 14.3919 6.17487 14.3822 6.22038 14.3634C6.26588 14.3445 6.30723 14.3169 6.34205 14.2821C6.37688 14.2473 6.40451 14.2059 6.42335 14.1604C6.4422 14.1149 6.4519 14.0661 6.4519 14.0169V12.6514C6.4519 12.6022 6.4422 12.5534 6.42335 12.5079C6.40451 12.4624 6.37688 12.421 6.34205 12.3862C6.30723 12.3514 6.26588 12.3238 6.22038 12.3049C6.17487 12.2861 6.1261 12.2764 6.07685 12.2764H4.67974C4.63048 12.2764 4.58171 12.2861 4.53621 12.3049C4.49071 12.3238 4.44936 12.3514 4.41453 12.3862C4.37971 12.421 4.35208 12.4624 4.33323 12.5079C4.31439 12.5534 4.30469 12.6022 4.30469 12.6514V14.0169C4.30469 14.0661 4.31439 14.1149 4.33323 14.1604C4.35208 14.2059 4.37971 14.2473 4.41453 14.2821C4.44936 14.3169 4.49071 14.3445 4.53621 14.3634C4.58171 14.3822 4.63048 14.3919 4.67974 14.3919H5.00332Z"
            fill="#F0F4FD" />
        <path fill-rule="evenodd" clip-rule="evenodd"
            d="M10.7569 22.416H2.63692e-10V23.625C-1.84658e-06 23.6742 0.00969753 23.723 0.0285448 23.7685C0.0473921 23.814 0.075018 23.8554 0.109845 23.8902C0.144672 23.925 0.186018 23.9526 0.231521 23.9715C0.277025 23.9903 0.325796 24 0.375048 24H10.3818C10.4311 24 10.4798 23.9903 10.5253 23.9715C10.5709 23.9526 10.6122 23.925 10.647 23.8902C10.6819 23.8554 10.7095 23.814 10.7283 23.7685C10.7472 23.723 10.7569 23.6742 10.7569 23.625V22.416Z"
            fill="#F0F4FD" />
    </g>
</svg>