<svg width="24" height="24" viewBox="0 0 24 24" fill="none" xmlns="http://www.w3.org/2000/svg">
    <circle cx="12" cy="12" r="11" fill="none" stroke="#F40101" stroke-width="2" />
    <g clip-path="url(#clip0_441_3105)">
        <rect width="7.17135" height="16" transform="translate(8 4)" fill="#1A3D7D" />
        <path fill-rule="evenodd" clip-rule="evenodd"
            d="M9.4011 12.5472H13.77C13.8028 12.5472 13.8353 12.5537 13.8656 12.5663C13.896 12.5788 13.9235 12.5972 13.9468 12.6205C13.97 12.6437 13.9884 12.6712 14.001 12.7016C14.0135 12.7319 14.02 12.7644 14.02 12.7973V17.1212C14.02 17.1541 14.0135 17.1866 14.001 17.2169C13.9884 17.2472 13.97 17.2748 13.9468 17.298C13.9235 17.3212 13.896 17.3397 13.8656 17.3522C13.8353 17.3648 13.8028 17.3713 13.77 17.3713H9.40119C9.36836 17.3713 9.33584 17.3648 9.30551 17.3522C9.27517 17.3397 9.24761 17.3212 9.22439 17.298C9.20117 17.2748 9.18276 17.2472 9.17019 17.2169C9.15763 17.1866 9.15116 17.1541 9.15116 17.1212V12.7973C9.15116 12.7644 9.15763 12.7319 9.17019 12.7016C9.18276 12.6712 9.20117 12.6437 9.22439 12.6205C9.24761 12.5972 9.27517 12.5788 9.30551 12.5663C9.33584 12.5537 9.36836 12.5472 9.40119 12.5472H9.4011ZM8.58463 10.9736C8.42967 10.9739 8.28114 11.0356 8.17156 11.1452C8.06199 11.2548 8.0003 11.4033 8 11.5583V18.4449H15.1712V11.5583C15.1709 11.4033 15.1093 11.2548 14.9997 11.1452C14.8901 11.0356 14.7416 10.9739 14.5866 10.9736H8.58463ZM12.576 12.0173C12.576 11.9686 12.5905 11.9211 12.6175 11.8807C12.6445 11.8403 12.6829 11.8088 12.7278 11.7902C12.7727 11.7716 12.8221 11.7667 12.8698 11.7762C12.9175 11.7857 12.9613 11.8091 12.9957 11.8434C13.0301 11.8778 13.0535 11.9216 13.063 11.9693C13.0724 12.017 13.0676 12.0664 13.049 12.1113C13.0304 12.1562 12.9989 12.1946 12.9584 12.2216C12.918 12.2487 12.8705 12.2631 12.8219 12.2631C12.7567 12.2631 12.6941 12.2372 12.648 12.1911C12.602 12.145 12.5761 12.0825 12.576 12.0173ZM10.1035 12.0173C10.1035 11.9686 10.1179 11.9211 10.1449 11.8807C10.1719 11.8403 10.2103 11.8088 10.2552 11.7902C10.3001 11.7716 10.3496 11.7667 10.3972 11.7762C10.4449 11.7857 10.4887 11.8091 10.5231 11.8434C10.5575 11.8778 10.5809 11.9216 10.5904 11.9693C10.5999 12.017 10.595 12.0664 10.5764 12.1113C10.5578 12.1562 10.5263 12.1946 10.4859 12.2216C10.4454 12.2487 10.3979 12.2631 10.3493 12.2631C10.2841 12.2631 10.2216 12.2372 10.1755 12.1911C10.1294 12.145 10.1035 12.0825 10.1035 12.0173Z"
            fill="#F0F4FD" />
        <path
            d="M9.23011 5.01074H13.8831C13.916 5.01074 13.9485 5.01721 13.9788 5.02977C14.0091 5.04234 14.0367 5.06075 14.0599 5.08397C14.0831 5.10719 14.1016 5.13475 14.1141 5.16509C14.1267 5.19543 14.1332 5.22794 14.1332 5.26077V7.40466C13.5108 7.51003 12.4067 7.6395 11.6262 7.40916C10.7686 7.15613 9.64083 7.33566 8.98007 7.48472V5.26087C8.98007 5.22803 8.98654 5.19552 8.9991 5.16518C9.01167 5.13485 9.03009 5.10728 9.0533 5.08407C9.07652 5.06085 9.10409 5.04243 9.13442 5.02987C9.16476 5.0173 9.19727 5.01083 9.23011 5.01084V5.01074ZM14.1332 7.908V8.36288C14.1318 8.87247 13.9287 9.3608 13.5684 9.72114C13.2081 10.0815 12.7197 10.2845 12.2101 10.2859H10.9031C10.3935 10.2845 9.90509 10.0815 9.54473 9.72113C9.18437 9.36077 8.98133 8.87241 8.97998 8.36279V7.99538C9.56526 7.85419 10.6785 7.64935 11.4855 7.88747C12.3195 8.13357 13.4425 8.01957 14.1331 7.90791L14.1332 7.908Z"
            fill="#F0F4FD" />
        <path
            d="M13.8735 5.51069H9.23777C9.03764 5.51005 8.84589 5.43026 8.70437 5.28874C8.56286 5.14723 8.48307 4.95548 8.48242 4.75535C8.48242 4.34069 8.82255 4 9.23777 4H13.8735C14.2882 4 14.6289 4.34013 14.6289 4.75535C14.6283 4.95551 14.5486 5.14731 14.407 5.28885C14.2655 5.43039 14.0737 5.51014 13.8735 5.51069Z"
            fill="#F0F4FD" />
        <path
            d="M12.2484 11.4736H10.9239C10.891 11.4736 10.8585 11.4672 10.8282 11.4546C10.7978 11.442 10.7703 11.4236 10.7471 11.4004C10.7238 11.3772 10.7054 11.3496 10.6929 11.3193C10.6803 11.289 10.6738 11.2564 10.6738 11.2236V10.0366C10.6738 10.0038 10.6803 9.97128 10.6929 9.94095C10.7054 9.91061 10.7238 9.88305 10.7471 9.85983C10.7703 9.83661 10.7978 9.8182 10.8282 9.80563C10.8585 9.79307 10.891 9.7866 10.9239 9.7866H12.2103V9.78726C12.2152 9.78688 12.2201 9.7867 12.2249 9.7866V9.78726C12.2326 9.7866 12.2404 9.78613 12.2483 9.78613C12.2811 9.78613 12.3136 9.7926 12.344 9.80516C12.3743 9.81773 12.4019 9.83614 12.4251 9.85936C12.4483 9.88258 12.4667 9.91014 12.4793 9.94048C12.4918 9.97082 12.4983 10.0033 12.4983 10.0362V11.2236C12.4983 11.2564 12.4918 11.289 12.4793 11.3193C12.4667 11.3496 12.4483 11.3772 12.4251 11.4004C12.4019 11.4236 12.3743 11.442 12.344 11.4546C12.3136 11.4672 12.2811 11.4736 12.2483 11.4736H12.2484Z"
            fill="#F0F4FD" />
        <path
            d="M10.7692 15.6963H12.4013C12.4341 15.6963 12.4666 15.7028 12.497 15.7153C12.5273 15.7279 12.5549 15.7463 12.5781 15.7695C12.6013 15.7927 12.6197 15.8203 12.6323 15.8506C12.6448 15.881 12.6513 15.9135 12.6513 15.9463C12.6513 15.9655 12.6491 15.9846 12.6448 16.0032L12.3963 17.4389L12.3965 17.4396C12.3864 17.4976 12.3562 17.5503 12.3111 17.5882C12.266 17.6261 12.209 17.6469 12.1501 17.647H11.0202C10.959 17.6469 10.8999 17.6244 10.8541 17.5837C10.8083 17.543 10.7791 17.4869 10.7719 17.4261L10.5231 15.9888L10.5227 15.9889C10.5114 15.9236 10.5265 15.8564 10.5647 15.8022C10.6029 15.748 10.6611 15.7112 10.7264 15.6999C10.7405 15.6975 10.7548 15.6963 10.7691 15.6963H10.7692Z"
            fill="#F0F4FD" />
        <path
            d="M11.3354 13.594V13.7139C11.3354 13.7802 11.3617 13.8438 11.4086 13.8907C11.4555 13.9376 11.5191 13.9639 11.5854 13.9639C11.6517 13.9639 11.7153 13.9376 11.7622 13.8907C11.8091 13.8438 11.8354 13.7802 11.8354 13.7139V13.594H12.0511C12.0839 13.594 12.1164 13.5875 12.1468 13.5749C12.1771 13.5624 12.2047 13.544 12.2279 13.5207C12.2511 13.4975 12.2695 13.47 12.2821 13.4396C12.2946 13.4093 12.3011 13.3768 12.3011 13.3439V12.4336C12.3011 12.4008 12.2946 12.3683 12.2821 12.3379C12.2695 12.3076 12.2511 12.28 12.2279 12.2568C12.2047 12.2336 12.1771 12.2152 12.1468 12.2026C12.1164 12.1901 12.0839 12.1836 12.0511 12.1836H11.1197C11.0868 12.1836 11.0543 12.1901 11.024 12.2026C10.9936 12.2152 10.9661 12.2336 10.9429 12.2568C10.9196 12.28 10.9012 12.3076 10.8887 12.3379C10.8761 12.3683 10.8696 12.4008 10.8696 12.4336V13.3439C10.8696 13.3768 10.8761 13.4093 10.8887 13.4396C10.9012 13.47 10.9196 13.4975 10.9429 13.5207C10.9661 13.544 10.9936 13.5624 11.024 13.5749C11.0543 13.5875 11.0868 13.594 11.1197 13.594H11.3354Z"
            fill="#F0F4FD" />
        <path fill-rule="evenodd" clip-rule="evenodd"
            d="M15.1712 18.9443H8V19.7503C8 19.7831 8.00647 19.8157 8.01903 19.846C8.03159 19.8763 8.05001 19.9039 8.07323 19.9271C8.09645 19.9503 8.12401 19.9687 8.15435 19.9813C8.18468 19.9939 8.2172 20.0003 8.25003 20.0003H14.9212C14.954 20.0003 14.9866 19.9939 15.0169 19.9813C15.0472 19.9687 15.0748 19.9503 15.098 19.9271C15.1212 19.9039 15.1397 19.8763 15.1522 19.846C15.1648 19.8157 15.1712 19.7831 15.1712 19.7503V18.9443Z"
            fill="#F0F4FD" />
    </g>
    <line x1="5.84549" y1="2.46601" x2="17.8455" y2="21.466" stroke="#F40101" stroke-width="2" />
    <defs>
        <clipPath id="clip0_441_3105">
            <rect width="7.17135" height="16" fill="white" transform="translate(8 4)" />
        </clipPath>
    </defs>
</svg>